<?xml version="1.0" encoding="utf-8" standalone="no"?>
<!DOCTYPE svg PUBLIC "-//W3C//DTD SVG 1.1//EN"
  "http://www.w3.org/Graphics/SVG/1.1/DTD/svg11.dtd">
<!-- Created with matplotlib (https://matplotlib.org/) -->
<svg height="291.6pt" version="1.1" viewBox="0 0 687.348 291.6" width="687.348pt" xmlns="http://www.w3.org/2000/svg" xmlns:xlink="http://www.w3.org/1999/xlink">
 <metadata>
  <rdf:RDF xmlns:cc="http://creativecommons.org/ns#" xmlns:dc="http://purl.org/dc/elements/1.1/" xmlns:rdf="http://www.w3.org/1999/02/22-rdf-syntax-ns#">
   <cc:Work>
    <dc:type rdf:resource="http://purl.org/dc/dcmitype/StillImage"/>
    <dc:date>2022-04-28T19:56:18.088107</dc:date>
    <dc:format>image/svg+xml</dc:format>
    <dc:creator>
     <cc:Agent>
      <dc:title>Matplotlib v3.3.4, https://matplotlib.org/</dc:title>
     </cc:Agent>
    </dc:creator>
   </cc:Work>
  </rdf:RDF>
 </metadata>
 <defs>
  <style type="text/css">*{stroke-linecap:butt;stroke-linejoin:round;}</style>
 </defs>
 <g id="figure_1">
  <g id="patch_1">
   <path d="M 0 291.6 
L 687.348 291.6 
L 687.348 0 
L 0 0 
z
" style="fill:#ffffff;"/>
  </g>
  <g id="axes_1">
   <g id="PolyCollection_1">
    <path clip-path="url(#p92a26c18f0)" d="M -453.510554 248.662523 
L -443.224302 248.662523 
L -432.938049 248.662523 
L -422.651797 248.662523 
L -412.365545 248.662523 
L -402.079292 248.662523 
L -391.79304 248.662523 
L -381.506788 248.662523 
L -371.220535 248.662523 
L -360.934283 248.662523 
L -350.648031 248.662523 
L -340.361778 248.662523 
L -330.075526 248.662523 
L -319.789274 248.662523 
L -309.503022 248.662523 
L -299.216769 248.662523 
L -288.930517 248.662523 
L -278.644265 248.662523 
L -268.358012 248.662523 
L -258.07176 248.662523 
L -247.785508 248.662523 
L -237.499255 248.662523 
L -227.213003 248.662523 
L -216.926751 248.662523 
L -206.640498 248.662523 
L -196.354246 248.662523 
L -186.067994 248.662523 
L -175.781742 248.662523 
L -165.495489 248.662523 
L -155.209237 248.662523 
L -144.922985 248.662523 
L -134.636732 248.662523 
L -124.35048 248.662523 
L -114.064228 248.662523 
L -103.777975 248.662523 
L -93.491723 248.662523 
L -83.205471 248.662523 
L -72.919218 248.662523 
L -62.632966 248.662523 
L -52.346714 248.662523 
L -42.060462 248.662523 
L -31.774209 248.662523 
L -21.487957 248.662523 
L -11.201705 248.662523 
L -0.915452 248.662523 
L 9.3708 248.662523 
L 19.657052 248.662523 
L 29.943305 248.662523 
L 40.229557 248.662523 
L 50.515809 248.662523 
L 60.802062 248.662523 
L 71.088314 248.662523 
L 81.374566 248.662523 
L 91.660818 248.662523 
L 101.947071 248.662523 
L 112.233323 248.662523 
L 122.519575 248.662523 
L 132.805828 248.662523 
L 143.09208 248.662523 
L 153.378332 248.662523 
L 163.664585 248.662523 
L 173.950837 248.662523 
L 184.237089 248.662523 
L 194.523342 248.662523 
L 204.809594 248.662523 
L 215.095846 248.662523 
L 225.382098 248.662523 
L 235.668351 248.662523 
L 245.954603 248.662523 
L 256.240855 248.662523 
L 266.527108 248.662523 
L 276.81336 248.662523 
L 287.099612 248.662523 
L 297.385865 248.662523 
L 307.672117 248.662523 
L 317.958369 248.662523 
L 328.244622 248.662523 
L 338.530874 248.662523 
L 348.817126 248.662523 
L 359.103378 248.662523 
L 369.389631 248.662523 
L 379.675883 248.662523 
L 389.962135 248.662523 
L 400.248388 248.662523 
L 410.53464 248.662523 
L 420.820892 248.662523 
L 431.107145 248.662523 
L 441.393397 248.662523 
L 451.679649 248.662523 
L 461.965902 248.662523 
L 472.252154 248.662523 
L 482.538406 248.662523 
L 492.824658 248.662523 
L 503.110911 248.662523 
L 513.397163 248.662523 
L 523.683415 248.662523 
L 533.969668 248.662523 
L 544.25592 248.662523 
L 554.542172 248.662523 
L 564.828425 248.662523 
L 575.114677 248.662523 
L 585.400929 248.662523 
L 595.687182 248.662523 
L 605.973434 248.662523 
L 616.259686 248.662523 
L 626.545938 248.662523 
L 636.832191 248.662523 
L 647.118443 248.662523 
L 657.404695 248.662523 
L 667.690948 248.662523 
L 677.9772 248.662523 
L 688.263452 248.662523 
L 698.549705 248.662523 
L 708.835957 248.662523 
L 719.122209 248.662523 
L 729.408462 248.662523 
L 739.694714 248.662523 
L 749.980966 248.662523 
L 760.267218 248.662523 
L 770.553471 248.662523 
L 780.839723 248.662523 
L 791.125975 248.662523 
L 801.412228 248.662523 
L 811.69848 248.662523 
L 821.984732 248.662523 
L 832.270985 248.662523 
L 842.557237 248.662523 
L 852.843489 248.662523 
L 863.129742 248.662523 
L 873.415994 248.662523 
L 883.702246 248.662523 
L 893.988498 248.662523 
L 904.274751 248.662523 
L 914.561003 248.662523 
L 924.847255 248.662523 
L 935.133508 248.662523 
L 945.41976 248.662523 
L 955.706012 248.662523 
L 965.992265 248.662523 
L 976.278517 248.662523 
L 986.564769 248.662523 
L 996.851022 248.662523 
L 1007.137274 248.662523 
L 1017.423526 248.662523 
L 1027.709778 248.662523 
L 1037.996031 248.662523 
L 1048.282283 248.662523 
L 1058.568535 248.662523 
L 1068.854788 248.662523 
L 1079.14104 248.662523 
L 1089.427292 248.662523 
L 1099.713545 248.662523 
L 1109.999797 248.662523 
L 1120.286049 248.662523 
L 1130.572302 248.662523 
L 1140.858554 248.662523 
L 1151.144806 248.662523 
L 1161.431058 248.662523 
L 1171.717311 248.662523 
L 1182.003563 248.662523 
L 1192.289815 248.662523 
L 1202.576068 248.662523 
L 1212.86232 248.662523 
L 1223.148572 248.662523 
L 1233.434825 248.662523 
L 1243.721077 248.662523 
L 1254.007329 248.662523 
L 1264.293582 248.662523 
L 1274.579834 248.662523 
L 1284.866086 248.662523 
L 1295.152338 248.662523 
L 1305.438591 248.662523 
L 1315.724843 248.662523 
L 1326.011095 248.662523 
L 1336.297348 248.662523 
L 1346.5836 248.662523 
L 1356.869852 248.662523 
L 1367.156105 248.662523 
L 1377.442357 248.662523 
L 1387.728609 248.662523 
L 1398.014862 248.662523 
L 1408.301114 248.662523 
L 1418.587366 248.662523 
L 1428.873618 248.662523 
L 1439.159871 248.662523 
L 1449.446123 248.662523 
L 1459.732375 248.662523 
L 1470.018628 248.662523 
L 1480.30488 248.662523 
L 1490.591132 248.662523 
L 1500.877385 248.662523 
L 1511.163637 248.662523 
L 1521.449889 248.662523 
L 1531.736142 248.662523 
L 1542.022394 248.662523 
L 1552.308646 248.662523 
L 1562.594898 248.662523 
L 1572.881151 248.662523 
L 1583.167403 248.662523 
L 1593.453655 248.662523 
L 1603.739908 248.662523 
L 1614.02616 248.662523 
L 1624.312412 248.662523 
L 1634.598665 248.662523 
L 1644.884917 248.662523 
L 1655.171169 248.662523 
L 1665.457422 248.662523 
L 1675.743674 248.662523 
L 1686.029926 248.662523 
L 1696.316178 248.662523 
L 1696.316178 145.8 
L 1686.029926 145.8 
L 1675.743674 145.8 
L 1665.457422 145.8 
L 1655.171169 145.8 
L 1644.884917 145.8 
L 1634.598665 145.8 
L 1624.312412 145.8 
L 1614.02616 145.8 
L 1603.739908 145.8 
L 1593.453655 145.8 
L 1583.167403 145.8 
L 1572.881151 145.8 
L 1562.594898 145.8 
L 1552.308646 145.8 
L 1542.022394 145.8 
L 1531.736142 145.8 
L 1521.449889 145.8 
L 1511.163637 145.8 
L 1500.877385 145.8 
L 1490.591132 145.8 
L 1480.30488 145.8 
L 1470.018628 145.8 
L 1459.732375 145.8 
L 1449.446123 145.8 
L 1439.159871 145.8 
L 1428.873618 145.8 
L 1418.587366 145.8 
L 1408.301114 145.8 
L 1398.014862 145.8 
L 1387.728609 145.8 
L 1377.442357 145.8 
L 1367.156105 145.8 
L 1356.869852 145.8 
L 1346.5836 145.8 
L 1336.297348 145.8 
L 1326.011095 145.8 
L 1315.724843 145.8 
L 1305.438591 145.8 
L 1295.152338 145.8 
L 1284.866086 145.8 
L 1274.579834 145.8 
L 1264.293582 145.8 
L 1254.007329 145.8 
L 1243.721077 145.8 
L 1233.434825 145.8 
L 1223.148572 145.8 
L 1212.86232 145.8 
L 1202.576068 145.8 
L 1192.289815 145.8 
L 1182.003563 145.8 
L 1171.717311 145.8 
L 1161.431058 145.8 
L 1151.144806 145.8 
L 1140.858554 145.8 
L 1130.572302 145.8 
L 1120.286049 145.8 
L 1109.999797 145.8 
L 1099.713545 145.8 
L 1089.427292 145.8 
L 1079.14104 145.8 
L 1068.854788 145.8 
L 1058.568535 145.8 
L 1048.282283 145.8 
L 1037.996031 145.8 
L 1027.709778 145.8 
L 1017.423526 145.8 
L 1007.137274 145.8 
L 996.851022 145.8 
L 986.564769 145.8 
L 976.278517 145.8 
L 965.992265 145.8 
L 955.706012 145.8 
L 945.41976 145.8 
L 935.133508 145.8 
L 924.847255 145.8 
L 914.561003 145.8 
L 904.274751 145.8 
L 893.988498 145.8 
L 883.702246 145.8 
L 873.415994 145.8 
L 863.129742 145.8 
L 852.843489 145.8 
L 842.557237 145.8 
L 832.270985 145.8 
L 821.984732 145.8 
L 811.69848 145.8 
L 801.412228 145.8 
L 791.125975 145.8 
L 780.839723 145.8 
L 770.553471 145.8 
L 760.267218 145.8 
L 749.980966 145.8 
L 739.694714 145.8 
L 729.408462 145.8 
L 719.122209 145.8 
L 708.835957 145.8 
L 698.549705 145.8 
L 688.263452 145.8 
L 677.9772 145.8 
L 667.690948 145.8 
L 657.404695 145.8 
L 647.118443 145.8 
L 636.832191 145.8 
L 626.545938 145.8 
L 616.259686 145.8 
L 605.973434 145.8 
L 595.687182 145.8 
L 585.400929 145.8 
L 575.114677 145.8 
L 564.828425 145.8 
L 554.542172 145.8 
L 544.25592 145.8 
L 533.969668 145.8 
L 523.683415 145.8 
L 513.397163 145.8 
L 503.110911 145.8 
L 492.824658 145.8 
L 482.538406 145.8 
L 472.252154 145.8 
L 461.965902 145.8 
L 451.679649 145.8 
L 441.393397 145.8 
L 431.107145 145.8 
L 420.820892 145.8 
L 410.53464 145.8 
L 400.248388 145.8 
L 389.962135 145.8 
L 379.675883 145.8 
L 369.389631 145.8 
L 359.103378 145.8 
L 348.817126 145.8 
L 338.530874 145.8 
L 328.244622 145.8 
L 317.958369 145.8 
L 307.672117 145.8 
L 297.385865 145.8 
L 287.099612 145.8 
L 276.81336 145.8 
L 266.527108 145.8 
L 256.240855 145.8 
L 245.954603 145.8 
L 235.668351 145.8 
L 225.382098 145.8 
L 215.095846 145.8 
L 204.809594 145.8 
L 194.523342 145.8 
L 184.237089 145.8 
L 173.950837 145.8 
L 163.664585 145.8 
L 153.378332 145.8 
L 143.09208 145.8 
L 132.805828 145.8 
L 122.519575 145.8 
L 112.233323 145.8 
L 101.947071 145.8 
L 91.660818 145.8 
L 81.374566 145.8 
L 71.088314 145.8 
L 60.802062 145.8 
L 50.515809 145.8 
L 40.229557 145.8 
L 29.943305 145.8 
L 19.657052 145.8 
L 9.3708 145.8 
L -0.915452 145.8 
L -11.201705 145.8 
L -21.487957 145.8 
L -31.774209 145.8 
L -42.060462 145.8 
L -52.346714 145.8 
L -62.632966 145.8 
L -72.919218 145.8 
L -83.205471 145.8 
L -93.491723 145.8 
L -103.777975 145.8 
L -114.064228 145.8 
L -124.35048 145.8 
L -134.636732 145.8 
L -144.922985 145.8 
L -155.209237 145.8 
L -165.495489 145.8 
L -175.781742 145.8 
L -186.067994 145.8 
L -196.354246 145.8 
L -206.640498 145.8 
L -216.926751 145.8 
L -227.213003 145.8 
L -237.499255 145.8 
L -247.785508 145.8 
L -258.07176 145.8 
L -268.358012 145.8 
L -278.644265 145.8 
L -288.930517 145.8 
L -299.216769 145.8 
L -309.503022 145.8 
L -319.789274 145.8 
L -330.075526 145.8 
L -340.361778 145.8 
L -350.648031 145.8 
L -360.934283 145.8 
L -371.220535 145.8 
L -381.506788 145.8 
L -391.79304 145.8 
L -402.079292 145.8 
L -412.365545 145.8 
L -422.651797 145.8 
L -432.938049 145.8 
L -443.224302 145.8 
L -453.510554 145.8 
z
" style="fill:#c7c7c7;"/>
    <path clip-path="url(#p92a26c18f0)" d="M -453.510554 145.8 
L -443.224302 145.8 
L -432.938049 145.8 
L -422.651797 145.8 
L -412.365545 145.8 
L -402.079292 145.8 
L -391.79304 145.8 
L -381.506788 145.8 
L -371.220535 145.8 
L -360.934283 145.8 
L -350.648031 145.8 
L -340.361778 145.8 
L -330.075526 145.8 
L -319.789274 145.8 
L -309.503022 145.8 
L -299.216769 145.8 
L -288.930517 145.8 
L -278.644265 145.8 
L -268.358012 145.8 
L -258.07176 145.8 
L -247.785508 145.8 
L -237.499255 145.8 
L -227.213003 145.8 
L -216.926751 145.8 
L -206.640498 145.8 
L -196.354246 145.8 
L -186.067994 145.8 
L -175.781742 145.8 
L -165.495489 145.8 
L -155.209237 145.8 
L -144.922985 145.8 
L -134.636732 145.8 
L -124.35048 145.8 
L -114.064228 145.8 
L -103.777975 145.8 
L -93.491723 145.8 
L -83.205471 145.8 
L -72.919218 145.8 
L -62.632966 145.8 
L -52.346714 145.8 
L -42.060462 145.8 
L -31.774209 145.8 
L -21.487957 145.8 
L -11.201705 145.8 
L -0.915452 145.8 
L 9.3708 145.8 
L 19.657052 145.8 
L 29.943305 145.8 
L 40.229557 145.8 
L 50.515809 145.8 
L 60.802062 145.8 
L 71.088314 145.8 
L 81.374566 145.8 
L 91.660818 145.8 
L 101.947071 145.8 
L 112.233323 145.8 
L 122.519575 145.8 
L 132.805828 145.8 
L 143.09208 145.8 
L 153.378332 145.8 
L 163.664585 145.8 
L 173.950837 145.8 
L 184.237089 145.8 
L 194.523342 145.8 
L 204.809594 145.8 
L 215.095846 145.8 
L 225.382098 145.8 
L 235.668351 145.8 
L 245.954603 145.8 
L 256.240855 145.8 
L 266.527108 145.8 
L 276.81336 145.8 
L 287.099612 145.8 
L 297.385865 145.8 
L 307.672117 145.8 
L 317.958369 145.8 
L 328.244622 145.8 
L 338.530874 145.8 
L 348.817126 145.8 
L 359.103378 145.8 
L 369.389631 145.8 
L 379.675883 145.8 
L 389.962135 145.8 
L 400.248388 145.8 
L 410.53464 145.8 
L 420.820892 145.8 
L 431.107145 145.8 
L 441.393397 145.8 
L 451.679649 145.8 
L 461.965902 145.8 
L 472.252154 145.8 
L 482.538406 145.8 
L 492.824658 145.8 
L 503.110911 145.8 
L 513.397163 145.8 
L 523.683415 145.8 
L 533.969668 145.8 
L 544.25592 145.8 
L 554.542172 145.8 
L 564.828425 145.8 
L 575.114677 145.8 
L 585.400929 145.8 
L 595.687182 145.8 
L 605.973434 145.8 
L 616.259686 145.8 
L 626.545938 145.8 
L 636.832191 145.8 
L 647.118443 145.8 
L 657.404695 145.8 
L 667.690948 145.8 
L 677.9772 145.8 
L 688.263452 145.8 
L 698.549705 145.8 
L 708.835957 145.8 
L 719.122209 145.8 
L 729.408462 145.8 
L 739.694714 145.8 
L 749.980966 145.8 
L 760.267218 145.8 
L 770.553471 145.8 
L 780.839723 145.8 
L 791.125975 145.8 
L 801.412228 145.8 
L 811.69848 145.8 
L 821.984732 145.8 
L 832.270985 145.8 
L 842.557237 145.8 
L 852.843489 145.8 
L 863.129742 145.8 
L 873.415994 145.8 
L 883.702246 145.8 
L 893.988498 145.8 
L 904.274751 145.8 
L 914.561003 145.8 
L 924.847255 145.8 
L 935.133508 145.8 
L 945.41976 145.8 
L 955.706012 145.8 
L 965.992265 145.8 
L 976.278517 145.8 
L 986.564769 145.8 
L 996.851022 145.8 
L 1007.137274 145.8 
L 1017.423526 145.8 
L 1027.709778 145.8 
L 1037.996031 145.8 
L 1048.282283 145.8 
L 1058.568535 145.8 
L 1068.854788 145.8 
L 1079.14104 145.8 
L 1089.427292 145.8 
L 1099.713545 145.8 
L 1109.999797 145.8 
L 1120.286049 145.8 
L 1130.572302 145.8 
L 1140.858554 145.8 
L 1151.144806 145.8 
L 1161.431058 145.8 
L 1171.717311 145.8 
L 1182.003563 145.8 
L 1192.289815 145.8 
L 1202.576068 145.8 
L 1212.86232 145.8 
L 1223.148572 145.8 
L 1233.434825 145.8 
L 1243.721077 145.8 
L 1254.007329 145.8 
L 1264.293582 145.8 
L 1274.579834 145.8 
L 1284.866086 145.8 
L 1295.152338 145.8 
L 1305.438591 145.8 
L 1315.724843 145.8 
L 1326.011095 145.8 
L 1336.297348 145.8 
L 1346.5836 145.8 
L 1356.869852 145.8 
L 1367.156105 145.8 
L 1377.442357 145.8 
L 1387.728609 145.8 
L 1398.014862 145.8 
L 1408.301114 145.8 
L 1418.587366 145.8 
L 1428.873618 145.8 
L 1439.159871 145.8 
L 1449.446123 145.8 
L 1459.732375 145.8 
L 1470.018628 145.8 
L 1480.30488 145.8 
L 1490.591132 145.8 
L 1500.877385 145.8 
L 1511.163637 145.8 
L 1521.449889 145.8 
L 1531.736142 145.8 
L 1542.022394 145.8 
L 1552.308646 145.8 
L 1562.594898 145.8 
L 1572.881151 145.8 
L 1583.167403 145.8 
L 1593.453655 145.8 
L 1603.739908 145.8 
L 1614.02616 145.8 
L 1624.312412 145.8 
L 1634.598665 145.8 
L 1644.884917 145.8 
L 1655.171169 145.8 
L 1665.457422 145.8 
L 1675.743674 145.8 
L 1686.029926 145.8 
L 1696.316178 145.8 
L 1696.316178 42.937477 
L 1686.029926 42.937477 
L 1675.743674 42.937477 
L 1665.457422 42.937477 
L 1655.171169 42.937477 
L 1644.884917 42.937477 
L 1634.598665 42.937477 
L 1624.312412 42.937477 
L 1614.02616 42.937477 
L 1603.739908 42.937477 
L 1593.453655 42.937477 
L 1583.167403 42.937477 
L 1572.881151 42.937477 
L 1562.594898 42.937477 
L 1552.308646 42.937477 
L 1542.022394 42.937477 
L 1531.736142 42.937477 
L 1521.449889 42.937477 
L 1511.163637 42.937477 
L 1500.877385 42.937477 
L 1490.591132 42.937477 
L 1480.30488 42.937477 
L 1470.018628 42.937477 
L 1459.732375 42.937477 
L 1449.446123 42.937477 
L 1439.159871 42.937477 
L 1428.873618 42.937477 
L 1418.587366 42.937477 
L 1408.301114 42.937477 
L 1398.014862 42.937477 
L 1387.728609 42.937477 
L 1377.442357 42.937477 
L 1367.156105 42.937477 
L 1356.869852 42.937477 
L 1346.5836 42.937477 
L 1336.297348 42.937477 
L 1326.011095 42.937477 
L 1315.724843 42.937477 
L 1305.438591 42.937477 
L 1295.152338 42.937477 
L 1284.866086 42.937477 
L 1274.579834 42.937477 
L 1264.293582 42.937477 
L 1254.007329 42.937477 
L 1243.721077 42.937477 
L 1233.434825 42.937477 
L 1223.148572 42.937477 
L 1212.86232 42.937477 
L 1202.576068 42.937477 
L 1192.289815 42.937477 
L 1182.003563 42.937477 
L 1171.717311 42.937477 
L 1161.431058 42.937477 
L 1151.144806 42.937477 
L 1140.858554 42.937477 
L 1130.572302 42.937477 
L 1120.286049 42.937477 
L 1109.999797 42.937477 
L 1099.713545 42.937477 
L 1089.427292 42.937477 
L 1079.14104 42.937477 
L 1068.854788 42.937477 
L 1058.568535 42.937477 
L 1048.282283 42.937477 
L 1037.996031 42.937477 
L 1027.709778 42.937477 
L 1017.423526 42.937477 
L 1007.137274 42.937477 
L 996.851022 42.937477 
L 986.564769 42.937477 
L 976.278517 42.937477 
L 965.992265 42.937477 
L 955.706012 42.937477 
L 945.41976 42.937477 
L 935.133508 42.937477 
L 924.847255 42.937477 
L 914.561003 42.937477 
L 904.274751 42.937477 
L 893.988498 42.937477 
L 883.702246 42.937477 
L 873.415994 42.937477 
L 863.129742 42.937477 
L 852.843489 42.937477 
L 842.557237 42.937477 
L 832.270985 42.937477 
L 821.984732 42.937477 
L 811.69848 42.937477 
L 801.412228 42.937477 
L 791.125975 42.937477 
L 780.839723 42.937477 
L 770.553471 42.937477 
L 760.267218 42.937477 
L 749.980966 42.937477 
L 739.694714 42.937477 
L 729.408462 42.937477 
L 719.122209 42.937477 
L 708.835957 42.937477 
L 698.549705 42.937477 
L 688.263452 42.937477 
L 677.9772 42.937477 
L 667.690948 42.937477 
L 657.404695 42.937477 
L 647.118443 42.937477 
L 636.832191 42.937477 
L 626.545938 42.937477 
L 616.259686 42.937477 
L 605.973434 42.937477 
L 595.687182 42.937477 
L 585.400929 42.937477 
L 575.114677 42.937477 
L 564.828425 42.937477 
L 554.542172 42.937477 
L 544.25592 42.937477 
L 533.969668 42.937477 
L 523.683415 42.937477 
L 513.397163 42.937477 
L 503.110911 42.937477 
L 492.824658 42.937477 
L 482.538406 42.937477 
L 472.252154 42.937477 
L 461.965902 42.937477 
L 451.679649 42.937477 
L 441.393397 42.937477 
L 431.107145 42.937477 
L 420.820892 42.937477 
L 410.53464 42.937477 
L 400.248388 42.937477 
L 389.962135 42.937477 
L 379.675883 42.937477 
L 369.389631 42.937477 
L 359.103378 42.937477 
L 348.817126 42.937477 
L 338.530874 42.937477 
L 328.244622 42.937477 
L 317.958369 42.937477 
L 307.672117 42.937477 
L 297.385865 42.937477 
L 287.099612 42.937477 
L 276.81336 42.937477 
L 266.527108 42.937477 
L 256.240855 42.937477 
L 245.954603 42.937477 
L 235.668351 42.937477 
L 225.382098 42.937477 
L 215.095846 42.937477 
L 204.809594 42.937477 
L 194.523342 42.937477 
L 184.237089 42.937477 
L 173.950837 42.937477 
L 163.664585 42.937477 
L 153.378332 42.937477 
L 143.09208 42.937477 
L 132.805828 42.937477 
L 122.519575 42.937477 
L 112.233323 42.937477 
L 101.947071 42.937477 
L 91.660818 42.937477 
L 81.374566 42.937477 
L 71.088314 42.937477 
L 60.802062 42.937477 
L 50.515809 42.937477 
L 40.229557 42.937477 
L 29.943305 42.937477 
L 19.657052 42.937477 
L 9.3708 42.937477 
L -0.915452 42.937477 
L -11.201705 42.937477 
L -21.487957 42.937477 
L -31.774209 42.937477 
L -42.060462 42.937477 
L -52.346714 42.937477 
L -62.632966 42.937477 
L -72.919218 42.937477 
L -83.205471 42.937477 
L -93.491723 42.937477 
L -103.777975 42.937477 
L -114.064228 42.937477 
L -124.35048 42.937477 
L -134.636732 42.937477 
L -144.922985 42.937477 
L -155.209237 42.937477 
L -165.495489 42.937477 
L -175.781742 42.937477 
L -186.067994 42.937477 
L -196.354246 42.937477 
L -206.640498 42.937477 
L -216.926751 42.937477 
L -227.213003 42.937477 
L -237.499255 42.937477 
L -247.785508 42.937477 
L -258.07176 42.937477 
L -268.358012 42.937477 
L -278.644265 42.937477 
L -288.930517 42.937477 
L -299.216769 42.937477 
L -309.503022 42.937477 
L -319.789274 42.937477 
L -330.075526 42.937477 
L -340.361778 42.937477 
L -350.648031 42.937477 
L -360.934283 42.937477 
L -371.220535 42.937477 
L -381.506788 42.937477 
L -391.79304 42.937477 
L -402.079292 42.937477 
L -412.365545 42.937477 
L -422.651797 42.937477 
L -432.938049 42.937477 
L -443.224302 42.937477 
L -453.510554 42.937477 
z
" style="fill:#c7c7c7;"/>
   </g>
   <g id="PathCollection_1"/>
   <g id="PathCollection_2">
    <path clip-path="url(#p92a26c18f0)" d="M -453.510554 204.945951 
L -438.081175 197.231262 
L -453.510554 189.516572 
z
" style="fill:#dddddd;stroke:#dddddd;stroke-width:0.5;"/>
    <path clip-path="url(#p92a26c18f0)" d="M -453.510554 102.083428 
L -438.081175 94.368738 
L -453.510554 86.654049 
z
" style="fill:#dddddd;stroke:#dddddd;stroke-width:0.5;"/>
   </g>
   <g id="PathCollection_3">
    <path clip-path="url(#p92a26c18f0)" d="M -1 248.662523 
L 688.348 248.662523 
L 688.348 248.662523 
" style="fill:none;stroke:#555555;stroke-width:0.5;"/>
    <path clip-path="url(#p92a26c18f0)" d="M -1 145.8 
L 688.348 145.8 
L 688.348 145.8 
" style="fill:none;stroke:#555555;stroke-width:0.5;"/>
   </g>
   <g id="PathCollection_4">
    <path clip-path="url(#p92a26c18f0)" d="M -1 145.8 
L 688.348 145.8 
L 688.348 145.8 
" style="fill:none;stroke:#555555;stroke-width:0.5;"/>
    <path clip-path="url(#p92a26c18f0)" d="M -1 42.937477 
L 688.348 42.937477 
L 688.348 42.937477 
" style="fill:none;stroke:#555555;stroke-width:0.5;"/>
   </g>
   <g id="PatchCollection_1">
    <path clip-path="url(#p92a26c18f0)" d="M 19.657052 155.400468 
C 22.384998 155.400468 25.001582 154.316643 26.930531 152.387694 
C 28.85948 150.458745 29.943305 147.842162 29.943305 145.114216 
C 29.943305 142.38627 28.85948 139.769686 26.930531 137.840737 
C 25.001582 135.911788 22.384998 134.827963 19.657052 134.827963 
C 16.929106 134.827963 14.312523 135.911788 12.383574 137.840737 
C 10.454624 139.769686 9.3708 142.38627 9.3708 145.114216 
C 9.3708 147.842162 10.454624 150.458745 12.383574 152.387694 
C 14.312523 154.316643 16.929106 155.400468 19.657052 155.400468 
z
" style="fill:#008000;stroke:#008000;"/>
    <path clip-path="url(#p92a26c18f0)" d="M 102.959033 143.447954 
L 66.182784 156.529549 
L 66.018215 148.302193 
L 19.739337 149.227894 
L 19.574768 141.000538 
L 65.853646 140.074837 
L 65.689077 131.84748 
z
" style="fill:#008000;stroke:#008000;"/>
    <path clip-path="url(#p92a26c18f0)" d="M 585.400929 184.887759 
L 585.400929 147.85725 
L 636.832191 147.85725 
L 636.832191 184.887759 
z
" style="fill:#f1b514;stroke:#302404;stroke-width:0.5;"/>
    <path clip-path="url(#p92a26c18f0)" d="M 161.195884 248.662523 
L 161.195884 84.082486 
L 189.997391 84.082486 
L 189.997391 248.662523 
z
" style="fill:#d95558;stroke:#831d20;stroke-width:0.5;"/>
    <path clip-path="url(#p92a26c18f0)" d="M 469.783453 207.517514 
L 469.783453 42.937477 
L 498.58496 42.937477 
L 498.58496 207.517514 
z
" style="fill:#d95558;stroke:#831d20;stroke-width:0.5;"/>
    <path clip-path="url(#p92a26c18f0)" d="M 19.657052 150.257342 
C 21.021025 150.257342 22.329317 149.715429 23.293792 148.750955 
C 24.258266 147.78648 24.800178 146.478189 24.800178 145.114216 
C 24.800178 143.750243 24.258266 142.441951 23.293792 141.477476 
C 22.329317 140.513002 21.021025 139.971089 19.657052 139.971089 
C 18.293079 139.971089 16.984787 140.513002 16.020313 141.477476 
C 15.055838 142.441951 14.513926 143.750243 14.513926 145.114216 
C 14.513926 146.478189 15.055838 147.78648 16.020313 148.750955 
C 16.984787 149.715429 18.293079 150.257342 19.657052 150.257342 
z
" style="fill:#1d7eea;stroke:#00478f;stroke-width:0.5;"/>
   </g>
   <g id="line2d_1">
    <path clip-path="url(#p92a26c18f0)" d="M 19.657052 145.114216 
" style="fill:none;stroke:#ffd700;stroke-linecap:square;stroke-width:2;"/>
   </g>
   <g id="line2d_2">
    <path clip-path="url(#p92a26c18f0)" d="M 19.657052 145.114216 
L 28.914679 144.929063 
L 38.172306 144.74391 
L 47.429934 144.558758 
L 56.687561 144.373605 
L 65.945188 144.188453 
" style="fill:none;stroke:#ffd700;stroke-linecap:square;stroke-width:2;"/>
   </g>
   <g id="line2d_3">
    <path clip-path="url(#p92a26c18f0)" d="M 19.657052 145.114216 
L 28.914679 144.929063 
L 38.170732 144.67928 
L 47.419342 144.23549 
L 56.646457 143.468154 
L 65.824279 142.248105 
" style="fill:none;stroke:#ffd700;stroke-linecap:square;stroke-width:2;"/>
   </g>
   <g id="line2d_4">
    <path clip-path="url(#p92a26c18f0)" d="M 19.657052 145.114216 
L 28.914679 144.929063 
L 38.173317 144.808552 
L 47.432276 144.882191 
L 56.682693 145.279976 
L 65.901959 146.132084 
" style="fill:none;stroke:#ffd700;stroke-linecap:square;stroke-width:2;"/>
   </g>
   <g id="line2d_5">
    <path clip-path="url(#p92a26c18f0)" d="M 65.824279 142.248105 
L 74.903811 140.448393 
L 83.851309 138.075852 
L 92.671713 135.266112 
L 101.388595 132.149151 
L 110.038366 128.850048 
" style="fill:none;stroke:#ffd700;stroke-linecap:square;stroke-width:2;"/>
   </g>
   <g id="line2d_6">
    <path clip-path="url(#p92a26c18f0)" d="M 65.824279 142.248105 
L 74.903811 140.448393 
L 83.833423 138.011409 
L 92.568444 134.949342 
L 101.06518 131.277512 
L 109.281125 127.014286 
" style="fill:none;stroke:#ffd700;stroke-linecap:square;stroke-width:2;"/>
   </g>
   <g id="line2d_7">
    <path clip-path="url(#p92a26c18f0)" d="M 110.038366 128.850048 
L 118.664944 125.490614 
L 127.291523 122.131179 
L 135.918101 118.771744 
L 144.54468 115.412309 
L 153.171258 112.052875 
" style="fill:none;stroke:#ffd700;stroke-linecap:square;stroke-width:2;"/>
   </g>
   <g id="line2d_8">
    <path clip-path="url(#p92a26c18f0)" d="M 110.038366 128.850048 
L 118.664944 125.490614 
L 127.267805 122.071051 
L 135.79692 118.471931 
L 144.194521 114.576491 
L 152.390069 110.273042 
" style="fill:none;stroke:#ffd700;stroke-linecap:square;stroke-width:2;"/>
   </g>
   <g id="line2d_9">
    <path clip-path="url(#p92a26c18f0)" d="M 110.038366 128.850048 
L 118.664944 125.490614 
L 127.314715 122.191511 
L 136.031596 119.07455 
L 144.852001 116.26481 
L 153.799499 113.892269 
" style="fill:none;stroke:#ffd700;stroke-linecap:square;stroke-width:2;"/>
   </g>
   <g id="line2d_10">
    <path clip-path="url(#p92a26c18f0)" d="M 153.799499 113.892269 
L 162.87903 112.092558 
L 172.055015 110.872728 
L 181.280283 110.105521 
L 190.527043 109.661794 
L 199.781244 109.412037 
" style="fill:none;stroke:#ffd700;stroke-dasharray:7.4,3.2;stroke-dashoffset:0;stroke-width:2;"/>
   </g>
   <g id="line2d_11">
    <path clip-path="url(#p92a26c18f0)" d="M 153.799499 113.892269 
L 162.87903 112.092558 
L 172.063062 110.939122 
L 181.305652 110.437731 
L 190.560564 110.590895 
L 199.781501 111.397846 
" style="fill:none;stroke:#ffd700;stroke-dasharray:7.4,3.2;stroke-dashoffset:0;stroke-width:2;"/>
   </g>
   <g id="line2d_12">
    <path clip-path="url(#p92a26c18f0)" d="M 153.171258 112.052875 
L 161.797837 108.69344 
L 170.424415 105.334005 
L 179.050994 101.97457 
L 187.677572 98.615135 
L 196.304151 95.255701 
" style="fill:none;stroke:#ffd700;stroke-dasharray:7.4,3.2;stroke-dashoffset:0;stroke-width:2;"/>
   </g>
   <g id="line2d_13">
    <path clip-path="url(#p92a26c18f0)" d="M 153.171258 112.052875 
L 161.797837 108.69344 
L 170.400697 105.273877 
L 178.929812 101.674757 
L 187.327414 97.779317 
L 195.522962 93.475868 
" style="fill:none;stroke:#ffd700;stroke-dasharray:7.4,3.2;stroke-dashoffset:0;stroke-width:2;"/>
   </g>
   <g id="line2d_14">
    <path clip-path="url(#p92a26c18f0)" d="M 153.171258 112.052875 
L 161.797837 108.69344 
L 170.447608 105.394337 
L 179.164489 102.277376 
L 187.984894 99.467636 
L 196.932392 97.095095 
" style="fill:none;stroke:#ffd700;stroke-dasharray:7.4,3.2;stroke-dashoffset:0;stroke-width:2;"/>
   </g>
   <g id="line2d_15">
    <path clip-path="url(#p92a26c18f0)" d="M 152.390069 110.273042 
L 160.295476 105.458336 
L 167.879763 100.15124 
L 175.194247 94.477398 
L 182.305796 88.550734 
L 189.291646 82.476154 
" style="fill:none;stroke:#ffd700;stroke-dasharray:7.4,3.2;stroke-dashoffset:0;stroke-width:2;"/>
   </g>
   <g id="line2d_16">
    <path clip-path="url(#p92a26c18f0)" d="M 152.390069 110.273042 
L 160.295476 105.458336 
L 167.840789 100.09689 
L 174.988263 94.215524 
L 181.702144 87.843659 
L 187.948845 81.01317 
" style="fill:none;stroke:#ffd700;stroke-dasharray:7.4,3.2;stroke-dashoffset:0;stroke-width:2;"/>
   </g>
   <g id="line2d_17">
    <path clip-path="url(#p92a26c18f0)" d="M 109.281125 127.014286 
L 117.17518 122.18099 
L 124.746957 116.856061 
L 132.04807 111.165022 
L 139.145652 105.221639 
L 146.117188 99.130637 
" style="fill:none;stroke:#ffd700;stroke-linecap:square;stroke-width:2;"/>
   </g>
   <g id="line2d_18">
    <path clip-path="url(#p92a26c18f0)" d="M 109.281125 127.014286 
L 117.17518 122.18099 
L 124.707856 116.801803 
L 131.84147 110.903633 
L 138.540338 104.515987 
L 144.770948 97.670817 
" style="fill:none;stroke:#ffd700;stroke-linecap:square;stroke-width:2;"/>
   </g>
   <g id="line2d_19">
    <path clip-path="url(#p92a26c18f0)" d="M 146.117188 99.130637 
L 153.046068 92.991072 
L 159.974949 86.851506 
L 166.90383 80.71194 
L 173.832711 74.572374 
L 180.761592 68.432808 
" style="fill:none;stroke:#ffd700;stroke-linecap:square;stroke-width:2;"/>
   </g>
   <g id="line2d_20">
    <path clip-path="url(#p92a26c18f0)" d="M 146.117188 99.130637 
L 153.046068 92.991072 
L 159.931872 86.803316 
L 166.6863 80.472663 
L 173.214716 73.909587 
L 179.412259 67.033751 
" style="fill:none;stroke:#ffd700;stroke-linecap:square;stroke-width:2;"/>
   </g>
   <g id="line2d_21">
    <path clip-path="url(#p92a26c18f0)" d="M 146.117188 99.130637 
L 153.046068 92.991072 
L 160.017604 86.90007 
L 167.115186 80.956687 
L 174.416299 75.265648 
L 181.988076 69.940719 
" style="fill:none;stroke:#ffd700;stroke-linecap:square;stroke-width:2;"/>
   </g>
   <g id="line2d_22">
    <path clip-path="url(#p92a26c18f0)" d="M 144.770948 97.670817 
L 150.502133 90.402366 
L 155.760697 82.78435 
L 160.638538 74.916641 
L 165.238042 66.882711 
L 169.668169 58.75396 
" style="fill:none;stroke:#ffd700;stroke-linecap:square;stroke-width:2;"/>
   </g>
   <g id="line2d_23">
    <path clip-path="url(#p92a26c18f0)" d="M 144.770948 97.670817 
L 150.502133 90.402366 
L 155.705222 82.746994 
L 160.354188 74.742997 
L 164.425774 66.430414 
L 167.899613 57.850828 
" style="fill:none;stroke:#ffd700;stroke-linecap:square;stroke-width:2;"/>
   </g>
   <g id="line2d_24">
    <path clip-path="url(#p92a26c18f0)" d="M 181.988076 69.940719 
L 189.882131 65.107423 
L 198.067529 60.784701 
L 206.455941 56.86951 
L 214.976563 53.250329 
L 223.571352 49.810532 
" style="fill:none;stroke:#ffd700;stroke-linecap:square;stroke-width:2;"/>
   </g>
   <g id="line2d_25">
    <path clip-path="url(#p92a26c18f0)" d="M 181.988076 69.940719 
L 189.882131 65.107423 
L 198.098076 60.844197 
L 206.594812 57.172367 
L 215.329834 54.1103 
L 224.259445 51.673316 
" style="fill:none;stroke:#ffd700;stroke-linecap:square;stroke-width:2;"/>
   </g>
   <g id="line2d_26">
    <path clip-path="url(#p92a26c18f0)" d="M 224.259445 51.673316 
L 233.338977 49.873604 
L 242.514961 48.653775 
L 251.740229 47.886568 
L 260.986989 47.442841 
L 270.24119 47.193084 
" style="fill:none;stroke:#ffd700;stroke-linecap:square;stroke-width:2;"/>
   </g>
   <g id="line2d_27">
    <path clip-path="url(#p92a26c18f0)" d="M 224.259445 51.673316 
L 233.338977 49.873604 
L 242.523009 48.720168 
L 251.765598 48.218778 
L 261.02051 48.371942 
L 270.241447 49.178893 
" style="fill:none;stroke:#ffd700;stroke-linecap:square;stroke-width:2;"/>
   </g>
   <g id="line2d_28">
    <path clip-path="url(#p92a26c18f0)" d="M 270.241447 49.178893 
L 279.382283 50.635595 
L 288.412739 52.66969 
L 297.332646 55.145457 
L 306.160667 57.932125 
L 314.92848 60.903331 
" style="fill:none;stroke:#ffd700;stroke-linecap:square;stroke-width:2;"/>
   </g>
   <g id="line2d_29">
    <path clip-path="url(#p92a26c18f0)" d="M 270.241447 49.178893 
L 279.382283 50.635595 
L 288.39729 52.734761 
L 297.241373 55.465889 
L 305.870288 58.815319 
L 314.240871 62.766293 
" style="fill:none;stroke:#ffd700;stroke-linecap:square;stroke-width:2;"/>
   </g>
   <g id="line2d_30">
    <path clip-path="url(#p92a26c18f0)" d="M 314.240871 62.766293 
L 322.311247 67.299049 
L 330.078078 72.335219 
L 337.588216 77.747427 
L 344.904466 83.419461 
L 352.100314 89.243753 
" style="fill:none;stroke:#ffd700;stroke-linecap:square;stroke-width:2;"/>
   </g>
   <g id="line2d_31">
    <path clip-path="url(#p92a26c18f0)" d="M 314.240871 62.766293 
L 322.311247 67.299049 
L 330.041047 72.390911 
L 337.391601 78.016407 
L 344.32614 84.147396 
L 350.809973 90.753209 
" style="fill:none;stroke:#ffd700;stroke-linecap:square;stroke-width:2;"/>
   </g>
   <g id="line2d_32">
    <path clip-path="url(#p92a26c18f0)" d="M 350.809973 90.753209 
L 356.810666 97.8008 
L 362.35223 105.215497 
L 367.52274 112.894039 
L 372.421364 120.749161 
L 377.154301 128.705412 
" style="fill:none;stroke:#ffd700;stroke-linecap:square;stroke-width:2;"/>
   </g>
   <g id="line2d_33">
    <path clip-path="url(#p92a26c18f0)" d="M 350.809973 90.753209 
L 356.810666 97.8008 
L 362.298201 105.254914 
L 367.245126 113.078263 
L 371.626696 121.23171 
L 375.420991 129.674469 
" style="fill:none;stroke:#ffd700;stroke-linecap:square;stroke-width:2;"/>
   </g>
   <g id="line2d_34">
    <path clip-path="url(#p92a26c18f0)" d="M 377.154301 128.705412 
L 381.831601 136.694562 
L 386.508902 144.683712 
L 391.186202 152.672863 
L 395.863502 160.662013 
L 400.540802 168.651163 
" style="fill:none;stroke:#ffd700;stroke-linecap:square;stroke-width:2;"/>
   </g>
   <g id="line2d_35">
    <path clip-path="url(#p92a26c18f0)" d="M 377.154301 128.705412 
L 381.831601 136.694562 
L 386.564539 144.650812 
L 391.463163 152.505934 
L 396.633672 160.184477 
L 402.175237 167.599174 
" style="fill:none;stroke:#ffd700;stroke-linecap:square;stroke-width:2;"/>
   </g>
   <g id="line2d_36">
    <path clip-path="url(#p92a26c18f0)" d="M 377.154301 128.705412 
L 381.831601 136.694562 
L 386.45298 144.716125 
L 390.905073 152.832672 
L 395.070105 161.099877 
L 398.823439 169.561506 
" style="fill:none;stroke:#ffd700;stroke-linecap:square;stroke-width:2;"/>
   </g>
   <g id="line2d_37">
    <path clip-path="url(#p92a26c18f0)" d="M 402.175237 167.599174 
L 408.17593 174.646765 
L 414.612236 181.299631 
L 421.368172 187.628256 
L 428.341779 193.716629 
L 435.441637 199.657557 
" style="fill:none;stroke:#ffd700;stroke-linecap:square;stroke-width:2;"/>
   </g>
   <g id="line2d_38">
    <path clip-path="url(#p92a26c18f0)" d="M 402.175237 167.599174 
L 408.17593 174.646765 
L 414.659763 181.252577 
L 421.594302 187.383567 
L 428.944856 193.009063 
L 436.674655 198.100925 
" style="fill:none;stroke:#ffd700;stroke-linecap:square;stroke-width:2;"/>
   </g>
   <g id="line2d_39">
    <path clip-path="url(#p92a26c18f0)" d="M 436.674655 198.100925 
L 444.745032 202.63368 
L 453.087329 206.645258 
L 461.617156 210.241953 
L 470.267959 213.537871 
L 478.986126 216.651742 
" style="fill:none;stroke:#ffd700;stroke-linecap:square;stroke-width:2;"/>
   </g>
   <g id="line2d_40">
    <path clip-path="url(#p92a26c18f0)" d="M 436.674655 198.100925 
L 444.745032 202.63368 
L 453.115615 206.584655 
L 461.74453 209.934084 
L 470.588612 212.665213 
L 479.60362 214.764379 
" style="fill:none;stroke:#ffd700;stroke-linecap:square;stroke-width:2;"/>
   </g>
   <g id="line2d_41">
    <path clip-path="url(#p92a26c18f0)" d="M 479.60362 214.764379 
L 488.744455 216.221081 
L 497.95985 217.094681 
L 507.207457 217.514125 
L 516.464366 217.609509 
L 525.72141 217.510781 
" style="fill:none;stroke:#ffd700;stroke-linecap:square;stroke-width:2;"/>
   </g>
   <g id="line2d_42">
    <path clip-path="url(#p92a26c18f0)" d="M 479.60362 214.764379 
L 488.744455 216.221081 
L 497.965393 217.028032 
L 507.220305 217.181195 
L 516.462894 216.679805 
L 525.646926 215.526369 
" style="fill:none;stroke:#ffd700;stroke-linecap:square;stroke-width:2;"/>
   </g>
   <g id="line2d_43">
    <path clip-path="url(#p92a26c18f0)" d="M 525.646926 215.526369 
L 534.726458 213.726658 
L 543.673956 211.354117 
L 552.49436 208.544376 
L 561.211241 205.427415 
L 569.861012 202.128313 
" style="fill:none;stroke:#ffd700;stroke-linecap:square;stroke-width:2;"/>
   </g>
   <g id="line2d_44">
    <path clip-path="url(#p92a26c18f0)" d="M 525.646926 215.526369 
L 534.726458 213.726658 
L 543.656069 211.289673 
L 552.391091 208.227607 
L 560.887827 204.555777 
L 569.103772 200.29255 
" style="fill:none;stroke:#ffd700;stroke-linecap:square;stroke-width:2;"/>
   </g>
   <g id="line2d_45">
    <path clip-path="url(#p92a26c18f0)" d="M 569.103772 200.29255 
L 576.997827 195.459254 
L 584.569604 190.134326 
L 591.870717 184.443286 
L 598.968299 178.499904 
L 605.939834 172.408902 
" style="fill:none;stroke:#ffd700;stroke-linecap:square;stroke-width:2;"/>
   </g>
   <g id="line2d_46">
    <path clip-path="url(#p92a26c18f0)" d="M 569.103772 200.29255 
L 576.997827 195.459254 
L 584.569604 190.134326 
L 591.870717 184.443286 
L 598.968299 178.499904 
L 605.939834 172.408902 
" style="fill:none;stroke:#008000;stroke-linecap:square;stroke-width:3;"/>
   </g>
   <g id="line2d_47">
    <path clip-path="url(#p92a26c18f0)" d="M 19.657052 145.114216 
" style="fill:none;stroke:#008000;stroke-linecap:square;stroke-width:3;"/>
   </g>
   <g id="line2d_48">
    <path clip-path="url(#p92a26c18f0)" d="M 19.657052 145.114216 
L 28.914679 144.929063 
L 38.170732 144.67928 
L 47.419342 144.23549 
L 56.646457 143.468154 
L 65.824279 142.248105 
" style="fill:none;stroke:#008000;stroke-linecap:square;stroke-width:3;"/>
   </g>
   <g id="line2d_49">
    <path clip-path="url(#p92a26c18f0)" d="M 65.824279 142.248105 
L 74.903811 140.448393 
L 83.833423 138.011409 
L 92.568444 134.949342 
L 101.06518 131.277512 
L 109.281125 127.014286 
" style="fill:none;stroke:#008000;stroke-linecap:square;stroke-width:3;"/>
   </g>
   <g id="line2d_50">
    <path clip-path="url(#p92a26c18f0)" d="M 109.281125 127.014286 
L 117.17518 122.18099 
L 124.746957 116.856061 
L 132.04807 111.165022 
L 139.145652 105.221639 
L 146.117188 99.130637 
" style="fill:none;stroke:#008000;stroke-linecap:square;stroke-width:3;"/>
   </g>
   <g id="line2d_51">
    <path clip-path="url(#p92a26c18f0)" d="M 146.117188 99.130637 
L 153.046068 92.991072 
L 160.017604 86.90007 
L 167.115186 80.956687 
L 174.416299 75.265648 
L 181.988076 69.940719 
" style="fill:none;stroke:#008000;stroke-linecap:square;stroke-width:3;"/>
   </g>
   <g id="line2d_52">
    <path clip-path="url(#p92a26c18f0)" d="M 181.988076 69.940719 
L 189.882131 65.107423 
L 198.098076 60.844197 
L 206.594812 57.172367 
L 215.329834 54.1103 
L 224.259445 51.673316 
" style="fill:none;stroke:#008000;stroke-linecap:square;stroke-width:3;"/>
   </g>
   <g id="line2d_53">
    <path clip-path="url(#p92a26c18f0)" d="M 224.259445 51.673316 
L 233.338977 49.873604 
L 242.523009 48.720168 
L 251.765598 48.218778 
L 261.02051 48.371942 
L 270.241447 49.178893 
" style="fill:none;stroke:#008000;stroke-linecap:square;stroke-width:3;"/>
   </g>
   <g id="line2d_54">
    <path clip-path="url(#p92a26c18f0)" d="M 270.241447 49.178893 
L 279.382283 50.635595 
L 288.39729 52.734761 
L 297.241373 55.465889 
L 305.870288 58.815319 
L 314.240871 62.766293 
" style="fill:none;stroke:#008000;stroke-linecap:square;stroke-width:3;"/>
   </g>
   <g id="line2d_55">
    <path clip-path="url(#p92a26c18f0)" d="M 314.240871 62.766293 
L 322.311247 67.299049 
L 330.041047 72.390911 
L 337.391601 78.016407 
L 344.32614 84.147396 
L 350.809973 90.753209 
" style="fill:none;stroke:#008000;stroke-linecap:square;stroke-width:3;"/>
   </g>
   <g id="line2d_56">
    <path clip-path="url(#p92a26c18f0)" d="M 350.809973 90.753209 
L 356.810666 97.8008 
L 362.35223 105.215497 
L 367.52274 112.894039 
L 372.421364 120.749161 
L 377.154301 128.705412 
" style="fill:none;stroke:#008000;stroke-linecap:square;stroke-width:3;"/>
   </g>
   <g id="line2d_57">
    <path clip-path="url(#p92a26c18f0)" d="M 377.154301 128.705412 
L 381.831601 136.694562 
L 386.564539 144.650812 
L 391.463163 152.505934 
L 396.633672 160.184477 
L 402.175237 167.599174 
" style="fill:none;stroke:#008000;stroke-linecap:square;stroke-width:3;"/>
   </g>
   <g id="line2d_58">
    <path clip-path="url(#p92a26c18f0)" d="M 402.175237 167.599174 
L 408.17593 174.646765 
L 414.659763 181.252577 
L 421.594302 187.383567 
L 428.944856 193.009063 
L 436.674655 198.100925 
" style="fill:none;stroke:#008000;stroke-linecap:square;stroke-width:3;"/>
   </g>
   <g id="line2d_59">
    <path clip-path="url(#p92a26c18f0)" d="M 436.674655 198.100925 
L 444.745032 202.63368 
L 453.115615 206.584655 
L 461.74453 209.934084 
L 470.588612 212.665213 
L 479.60362 214.764379 
" style="fill:none;stroke:#008000;stroke-linecap:square;stroke-width:3;"/>
   </g>
   <g id="line2d_60">
    <path clip-path="url(#p92a26c18f0)" d="M 479.60362 214.764379 
L 488.744455 216.221081 
L 497.965393 217.028032 
L 507.220305 217.181195 
L 516.462894 216.679805 
L 525.646926 215.526369 
" style="fill:none;stroke:#008000;stroke-linecap:square;stroke-width:3;"/>
   </g>
   <g id="line2d_61">
    <path clip-path="url(#p92a26c18f0)" d="M 525.646926 215.526369 
L 534.726458 213.726658 
L 543.656069 211.289673 
L 552.391091 208.227607 
L 560.887827 204.555777 
L 569.103772 200.29255 
" style="fill:none;stroke:#008000;stroke-linecap:square;stroke-width:3;"/>
   </g>
   <g id="line2d_62">
    <path clip-path="url(#p92a26c18f0)" d="M 569.103772 200.29255 
L 576.997827 195.459254 
L 584.569604 190.134326 
L 591.870717 184.443286 
L 598.968299 178.499904 
L 605.939834 172.408902 
" style="fill:none;stroke:#008000;stroke-linecap:square;stroke-width:3;"/>
   </g>
   <g id="line2d_63">
    <path clip-path="url(#p92a26c18f0)" d="M 19.657052 145.114216 
" style="fill:none;stroke:#ffd700;stroke-linecap:square;stroke-width:1.5;"/>
    <defs>
     <path d="M 0 4 
C 1.060812 4 2.078319 3.578535 2.828427 2.828427 
C 3.578535 2.078319 4 1.060812 4 0 
C 4 -1.060812 3.578535 -2.078319 2.828427 -2.828427 
C 2.078319 -3.578535 1.060812 -4 0 -4 
C -1.060812 -4 -2.078319 -3.578535 -2.828427 -2.828427 
C -3.578535 -2.078319 -4 -1.060812 -4 0 
C -4 1.060812 -3.578535 2.078319 -2.828427 2.828427 
C -2.078319 3.578535 -1.060812 4 0 4 
z
" id="m7dc8a66bc3" style="stroke:#ffd700;"/>
    </defs>
    <g clip-path="url(#p92a26c18f0)">
     <use style="fill:#ffd700;stroke:#ffd700;" x="19.657052" xlink:href="#m7dc8a66bc3" y="145.114216"/>
    </g>
   </g>
   <g id="line2d_64">
    <path clip-path="url(#p92a26c18f0)" d="M 65.945188 144.188453 
" style="fill:none;stroke:#ffd700;stroke-linecap:square;stroke-width:1.5;"/>
    <g clip-path="url(#p92a26c18f0)">
     <use style="fill:#ffd700;stroke:#ffd700;" x="65.945188" xlink:href="#m7dc8a66bc3" y="144.188453"/>
    </g>
   </g>
   <g id="line2d_65">
    <path clip-path="url(#p92a26c18f0)" d="M 65.824279 142.248105 
" style="fill:none;stroke:#ffd700;stroke-linecap:square;stroke-width:1.5;"/>
    <g clip-path="url(#p92a26c18f0)">
     <use style="fill:#ffd700;stroke:#ffd700;" x="65.824279" xlink:href="#m7dc8a66bc3" y="142.248105"/>
    </g>
   </g>
   <g id="line2d_66">
    <path clip-path="url(#p92a26c18f0)" d="M 65.901959 146.132084 
" style="fill:none;stroke:#ffd700;stroke-linecap:square;stroke-width:1.5;"/>
    <g clip-path="url(#p92a26c18f0)">
     <use style="fill:#ffd700;stroke:#ffd700;" x="65.901959" xlink:href="#m7dc8a66bc3" y="146.132084"/>
    </g>
   </g>
   <g id="line2d_67">
    <path clip-path="url(#p92a26c18f0)" d="M 110.038366 128.850048 
" style="fill:none;stroke:#ffd700;stroke-linecap:square;stroke-width:1.5;"/>
    <g clip-path="url(#p92a26c18f0)">
     <use style="fill:#ffd700;stroke:#ffd700;" x="110.038366" xlink:href="#m7dc8a66bc3" y="128.850048"/>
    </g>
   </g>
   <g id="line2d_68">
    <path clip-path="url(#p92a26c18f0)" d="M 109.281125 127.014286 
" style="fill:none;stroke:#ffd700;stroke-linecap:square;stroke-width:1.5;"/>
    <g clip-path="url(#p92a26c18f0)">
     <use style="fill:#ffd700;stroke:#ffd700;" x="109.281125" xlink:href="#m7dc8a66bc3" y="127.014286"/>
    </g>
   </g>
   <g id="line2d_69">
    <path clip-path="url(#p92a26c18f0)" d="M 153.171258 112.052875 
" style="fill:none;stroke:#ffd700;stroke-linecap:square;stroke-width:1.5;"/>
    <g clip-path="url(#p92a26c18f0)">
     <use style="fill:#ffd700;stroke:#ffd700;" x="153.171258" xlink:href="#m7dc8a66bc3" y="112.052875"/>
    </g>
   </g>
   <g id="line2d_70">
    <path clip-path="url(#p92a26c18f0)" d="M 152.390069 110.273042 
" style="fill:none;stroke:#ffd700;stroke-linecap:square;stroke-width:1.5;"/>
    <g clip-path="url(#p92a26c18f0)">
     <use style="fill:#ffd700;stroke:#ffd700;" x="152.390069" xlink:href="#m7dc8a66bc3" y="110.273042"/>
    </g>
   </g>
   <g id="line2d_71">
    <path clip-path="url(#p92a26c18f0)" d="M 153.799499 113.892269 
" style="fill:none;stroke:#ffd700;stroke-linecap:square;stroke-width:1.5;"/>
    <g clip-path="url(#p92a26c18f0)">
     <use style="fill:#ffd700;stroke:#ffd700;" x="153.799499" xlink:href="#m7dc8a66bc3" y="113.892269"/>
    </g>
   </g>
   <g id="line2d_72">
    <path clip-path="url(#p92a26c18f0)" d="M 199.781244 109.412037 
" style="fill:none;stroke:#ffd700;stroke-linecap:square;stroke-width:1.5;"/>
    <g clip-path="url(#p92a26c18f0)">
     <use style="fill:#ffd700;stroke:#ffd700;" x="199.781244" xlink:href="#m7dc8a66bc3" y="109.412037"/>
    </g>
   </g>
   <g id="line2d_73">
    <path clip-path="url(#p92a26c18f0)" d="M 199.781501 111.397846 
" style="fill:none;stroke:#ffd700;stroke-linecap:square;stroke-width:1.5;"/>
    <g clip-path="url(#p92a26c18f0)">
     <use style="fill:#ffd700;stroke:#ffd700;" x="199.781501" xlink:href="#m7dc8a66bc3" y="111.397846"/>
    </g>
   </g>
   <g id="line2d_74">
    <path clip-path="url(#p92a26c18f0)" d="M 196.304151 95.255701 
" style="fill:none;stroke:#ffd700;stroke-linecap:square;stroke-width:1.5;"/>
    <g clip-path="url(#p92a26c18f0)">
     <use style="fill:#ffd700;stroke:#ffd700;" x="196.304151" xlink:href="#m7dc8a66bc3" y="95.255701"/>
    </g>
   </g>
   <g id="line2d_75">
    <path clip-path="url(#p92a26c18f0)" d="M 195.522962 93.475868 
" style="fill:none;stroke:#ffd700;stroke-linecap:square;stroke-width:1.5;"/>
    <g clip-path="url(#p92a26c18f0)">
     <use style="fill:#ffd700;stroke:#ffd700;" x="195.522962" xlink:href="#m7dc8a66bc3" y="93.475868"/>
    </g>
   </g>
   <g id="line2d_76">
    <path clip-path="url(#p92a26c18f0)" d="M 196.932392 97.095095 
" style="fill:none;stroke:#ffd700;stroke-linecap:square;stroke-width:1.5;"/>
    <g clip-path="url(#p92a26c18f0)">
     <use style="fill:#ffd700;stroke:#ffd700;" x="196.932392" xlink:href="#m7dc8a66bc3" y="97.095095"/>
    </g>
   </g>
   <g id="line2d_77">
    <path clip-path="url(#p92a26c18f0)" d="M 189.291646 82.476154 
" style="fill:none;stroke:#ffd700;stroke-linecap:square;stroke-width:1.5;"/>
    <g clip-path="url(#p92a26c18f0)">
     <use style="fill:#ffd700;stroke:#ffd700;" x="189.291646" xlink:href="#m7dc8a66bc3" y="82.476154"/>
    </g>
   </g>
   <g id="line2d_78">
    <path clip-path="url(#p92a26c18f0)" d="M 187.948845 81.01317 
" style="fill:none;stroke:#ffd700;stroke-linecap:square;stroke-width:1.5;"/>
    <g clip-path="url(#p92a26c18f0)">
     <use style="fill:#ffd700;stroke:#ffd700;" x="187.948845" xlink:href="#m7dc8a66bc3" y="81.01317"/>
    </g>
   </g>
   <g id="line2d_79">
    <path clip-path="url(#p92a26c18f0)" d="M 146.117188 99.130637 
" style="fill:none;stroke:#ffd700;stroke-linecap:square;stroke-width:1.5;"/>
    <g clip-path="url(#p92a26c18f0)">
     <use style="fill:#ffd700;stroke:#ffd700;" x="146.117188" xlink:href="#m7dc8a66bc3" y="99.130637"/>
    </g>
   </g>
   <g id="line2d_80">
    <path clip-path="url(#p92a26c18f0)" d="M 144.770948 97.670817 
" style="fill:none;stroke:#ffd700;stroke-linecap:square;stroke-width:1.5;"/>
    <g clip-path="url(#p92a26c18f0)">
     <use style="fill:#ffd700;stroke:#ffd700;" x="144.770948" xlink:href="#m7dc8a66bc3" y="97.670817"/>
    </g>
   </g>
   <g id="line2d_81">
    <path clip-path="url(#p92a26c18f0)" d="M 180.761592 68.432808 
" style="fill:none;stroke:#ffd700;stroke-linecap:square;stroke-width:1.5;"/>
    <g clip-path="url(#p92a26c18f0)">
     <use style="fill:#ffd700;stroke:#ffd700;" x="180.761592" xlink:href="#m7dc8a66bc3" y="68.432808"/>
    </g>
   </g>
   <g id="line2d_82">
    <path clip-path="url(#p92a26c18f0)" d="M 179.412259 67.033751 
" style="fill:none;stroke:#ffd700;stroke-linecap:square;stroke-width:1.5;"/>
    <g clip-path="url(#p92a26c18f0)">
     <use style="fill:#ffd700;stroke:#ffd700;" x="179.412259" xlink:href="#m7dc8a66bc3" y="67.033751"/>
    </g>
   </g>
   <g id="line2d_83">
    <path clip-path="url(#p92a26c18f0)" d="M 181.988076 69.940719 
" style="fill:none;stroke:#ffd700;stroke-linecap:square;stroke-width:1.5;"/>
    <g clip-path="url(#p92a26c18f0)">
     <use style="fill:#ffd700;stroke:#ffd700;" x="181.988076" xlink:href="#m7dc8a66bc3" y="69.940719"/>
    </g>
   </g>
   <g id="line2d_84">
    <path clip-path="url(#p92a26c18f0)" d="M 169.668169 58.75396 
" style="fill:none;stroke:#ffd700;stroke-linecap:square;stroke-width:1.5;"/>
    <g clip-path="url(#p92a26c18f0)">
     <use style="fill:#ffd700;stroke:#ffd700;" x="169.668169" xlink:href="#m7dc8a66bc3" y="58.75396"/>
    </g>
   </g>
   <g id="line2d_85">
    <path clip-path="url(#p92a26c18f0)" d="M 167.899613 57.850828 
" style="fill:none;stroke:#ffd700;stroke-linecap:square;stroke-width:1.5;"/>
    <g clip-path="url(#p92a26c18f0)">
     <use style="fill:#ffd700;stroke:#ffd700;" x="167.899613" xlink:href="#m7dc8a66bc3" y="57.850828"/>
    </g>
   </g>
   <g id="line2d_86">
    <path clip-path="url(#p92a26c18f0)" d="M 223.571352 49.810532 
" style="fill:none;stroke:#ffd700;stroke-linecap:square;stroke-width:1.5;"/>
    <g clip-path="url(#p92a26c18f0)">
     <use style="fill:#ffd700;stroke:#ffd700;" x="223.571352" xlink:href="#m7dc8a66bc3" y="49.810532"/>
    </g>
   </g>
   <g id="line2d_87">
    <path clip-path="url(#p92a26c18f0)" d="M 224.259445 51.673316 
" style="fill:none;stroke:#ffd700;stroke-linecap:square;stroke-width:1.5;"/>
    <g clip-path="url(#p92a26c18f0)">
     <use style="fill:#ffd700;stroke:#ffd700;" x="224.259445" xlink:href="#m7dc8a66bc3" y="51.673316"/>
    </g>
   </g>
   <g id="line2d_88">
    <path clip-path="url(#p92a26c18f0)" d="M 270.24119 47.193084 
" style="fill:none;stroke:#ffd700;stroke-linecap:square;stroke-width:1.5;"/>
    <g clip-path="url(#p92a26c18f0)">
     <use style="fill:#ffd700;stroke:#ffd700;" x="270.24119" xlink:href="#m7dc8a66bc3" y="47.193084"/>
    </g>
   </g>
   <g id="line2d_89">
    <path clip-path="url(#p92a26c18f0)" d="M 270.241447 49.178893 
" style="fill:none;stroke:#ffd700;stroke-linecap:square;stroke-width:1.5;"/>
    <g clip-path="url(#p92a26c18f0)">
     <use style="fill:#ffd700;stroke:#ffd700;" x="270.241447" xlink:href="#m7dc8a66bc3" y="49.178893"/>
    </g>
   </g>
   <g id="line2d_90">
    <path clip-path="url(#p92a26c18f0)" d="M 314.92848 60.903331 
" style="fill:none;stroke:#ffd700;stroke-linecap:square;stroke-width:1.5;"/>
    <g clip-path="url(#p92a26c18f0)">
     <use style="fill:#ffd700;stroke:#ffd700;" x="314.92848" xlink:href="#m7dc8a66bc3" y="60.903331"/>
    </g>
   </g>
   <g id="line2d_91">
    <path clip-path="url(#p92a26c18f0)" d="M 314.240871 62.766293 
" style="fill:none;stroke:#ffd700;stroke-linecap:square;stroke-width:1.5;"/>
    <g clip-path="url(#p92a26c18f0)">
     <use style="fill:#ffd700;stroke:#ffd700;" x="314.240871" xlink:href="#m7dc8a66bc3" y="62.766293"/>
    </g>
   </g>
   <g id="line2d_92">
    <path clip-path="url(#p92a26c18f0)" d="M 352.100314 89.243753 
" style="fill:none;stroke:#ffd700;stroke-linecap:square;stroke-width:1.5;"/>
    <g clip-path="url(#p92a26c18f0)">
     <use style="fill:#ffd700;stroke:#ffd700;" x="352.100314" xlink:href="#m7dc8a66bc3" y="89.243753"/>
    </g>
   </g>
   <g id="line2d_93">
    <path clip-path="url(#p92a26c18f0)" d="M 350.809973 90.753209 
" style="fill:none;stroke:#ffd700;stroke-linecap:square;stroke-width:1.5;"/>
    <g clip-path="url(#p92a26c18f0)">
     <use style="fill:#ffd700;stroke:#ffd700;" x="350.809973" xlink:href="#m7dc8a66bc3" y="90.753209"/>
    </g>
   </g>
   <g id="line2d_94">
    <path clip-path="url(#p92a26c18f0)" d="M 377.154301 128.705412 
" style="fill:none;stroke:#ffd700;stroke-linecap:square;stroke-width:1.5;"/>
    <g clip-path="url(#p92a26c18f0)">
     <use style="fill:#ffd700;stroke:#ffd700;" x="377.154301" xlink:href="#m7dc8a66bc3" y="128.705412"/>
    </g>
   </g>
   <g id="line2d_95">
    <path clip-path="url(#p92a26c18f0)" d="M 375.420991 129.674469 
" style="fill:none;stroke:#ffd700;stroke-linecap:square;stroke-width:1.5;"/>
    <g clip-path="url(#p92a26c18f0)">
     <use style="fill:#ffd700;stroke:#ffd700;" x="375.420991" xlink:href="#m7dc8a66bc3" y="129.674469"/>
    </g>
   </g>
   <g id="line2d_96">
    <path clip-path="url(#p92a26c18f0)" d="M 400.540802 168.651163 
" style="fill:none;stroke:#ffd700;stroke-linecap:square;stroke-width:1.5;"/>
    <g clip-path="url(#p92a26c18f0)">
     <use style="fill:#ffd700;stroke:#ffd700;" x="400.540802" xlink:href="#m7dc8a66bc3" y="168.651163"/>
    </g>
   </g>
   <g id="line2d_97">
    <path clip-path="url(#p92a26c18f0)" d="M 402.175237 167.599174 
" style="fill:none;stroke:#ffd700;stroke-linecap:square;stroke-width:1.5;"/>
    <g clip-path="url(#p92a26c18f0)">
     <use style="fill:#ffd700;stroke:#ffd700;" x="402.175237" xlink:href="#m7dc8a66bc3" y="167.599174"/>
    </g>
   </g>
   <g id="line2d_98">
    <path clip-path="url(#p92a26c18f0)" d="M 398.823439 169.561506 
" style="fill:none;stroke:#ffd700;stroke-linecap:square;stroke-width:1.5;"/>
    <g clip-path="url(#p92a26c18f0)">
     <use style="fill:#ffd700;stroke:#ffd700;" x="398.823439" xlink:href="#m7dc8a66bc3" y="169.561506"/>
    </g>
   </g>
   <g id="line2d_99">
    <path clip-path="url(#p92a26c18f0)" d="M 435.441637 199.657557 
" style="fill:none;stroke:#ffd700;stroke-linecap:square;stroke-width:1.5;"/>
    <g clip-path="url(#p92a26c18f0)">
     <use style="fill:#ffd700;stroke:#ffd700;" x="435.441637" xlink:href="#m7dc8a66bc3" y="199.657557"/>
    </g>
   </g>
   <g id="line2d_100">
    <path clip-path="url(#p92a26c18f0)" d="M 436.674655 198.100925 
" style="fill:none;stroke:#ffd700;stroke-linecap:square;stroke-width:1.5;"/>
    <g clip-path="url(#p92a26c18f0)">
     <use style="fill:#ffd700;stroke:#ffd700;" x="436.674655" xlink:href="#m7dc8a66bc3" y="198.100925"/>
    </g>
   </g>
   <g id="line2d_101">
    <path clip-path="url(#p92a26c18f0)" d="M 478.986126 216.651742 
" style="fill:none;stroke:#ffd700;stroke-linecap:square;stroke-width:1.5;"/>
    <g clip-path="url(#p92a26c18f0)">
     <use style="fill:#ffd700;stroke:#ffd700;" x="478.986126" xlink:href="#m7dc8a66bc3" y="216.651742"/>
    </g>
   </g>
   <g id="line2d_102">
    <path clip-path="url(#p92a26c18f0)" d="M 479.60362 214.764379 
" style="fill:none;stroke:#ffd700;stroke-linecap:square;stroke-width:1.5;"/>
    <g clip-path="url(#p92a26c18f0)">
     <use style="fill:#ffd700;stroke:#ffd700;" x="479.60362" xlink:href="#m7dc8a66bc3" y="214.764379"/>
    </g>
   </g>
   <g id="line2d_103">
    <path clip-path="url(#p92a26c18f0)" d="M 525.72141 217.510781 
" style="fill:none;stroke:#ffd700;stroke-linecap:square;stroke-width:1.5;"/>
    <g clip-path="url(#p92a26c18f0)">
     <use style="fill:#ffd700;stroke:#ffd700;" x="525.72141" xlink:href="#m7dc8a66bc3" y="217.510781"/>
    </g>
   </g>
   <g id="line2d_104">
    <path clip-path="url(#p92a26c18f0)" d="M 525.646926 215.526369 
" style="fill:none;stroke:#ffd700;stroke-linecap:square;stroke-width:1.5;"/>
    <g clip-path="url(#p92a26c18f0)">
     <use style="fill:#ffd700;stroke:#ffd700;" x="525.646926" xlink:href="#m7dc8a66bc3" y="215.526369"/>
    </g>
   </g>
   <g id="line2d_105">
    <path clip-path="url(#p92a26c18f0)" d="M 569.861012 202.128313 
" style="fill:none;stroke:#ffd700;stroke-linecap:square;stroke-width:1.5;"/>
    <g clip-path="url(#p92a26c18f0)">
     <use style="fill:#ffd700;stroke:#ffd700;" x="569.861012" xlink:href="#m7dc8a66bc3" y="202.128313"/>
    </g>
   </g>
   <g id="line2d_106">
    <path clip-path="url(#p92a26c18f0)" d="M 569.103772 200.29255 
" style="fill:none;stroke:#ffd700;stroke-linecap:square;stroke-width:1.5;"/>
    <g clip-path="url(#p92a26c18f0)">
     <use style="fill:#ffd700;stroke:#ffd700;" x="569.103772" xlink:href="#m7dc8a66bc3" y="200.29255"/>
    </g>
   </g>
   <g id="line2d_107">
    <path clip-path="url(#p92a26c18f0)" d="M 605.939834 172.408902 
" style="fill:none;stroke:#ffd700;stroke-linecap:square;stroke-width:1.5;"/>
    <g clip-path="url(#p92a26c18f0)">
     <use style="fill:#ffd700;stroke:#ffd700;" x="605.939834" xlink:href="#m7dc8a66bc3" y="172.408902"/>
    </g>
   </g>
   <g id="line2d_108">
    <path clip-path="url(#p92a26c18f0)" d="M 605.939834 172.408902 
" style="fill:none;stroke:#008000;stroke-linecap:square;stroke-width:1.5;"/>
    <defs>
     <path d="M 0 4 
C 1.060812 4 2.078319 3.578535 2.828427 2.828427 
C 3.578535 2.078319 4 1.060812 4 0 
C 4 -1.060812 3.578535 -2.078319 2.828427 -2.828427 
C 2.078319 -3.578535 1.060812 -4 0 -4 
C -1.060812 -4 -2.078319 -3.578535 -2.828427 -2.828427 
C -3.578535 -2.078319 -4 -1.060812 -4 0 
C -4 1.060812 -3.578535 2.078319 -2.828427 2.828427 
C -2.078319 3.578535 -1.060812 4 0 4 
z
" id="md171ed7745" style="stroke:#008000;"/>
    </defs>
    <g clip-path="url(#p92a26c18f0)">
     <use style="fill:#008000;stroke:#008000;" x="605.939834" xlink:href="#md171ed7745" y="172.408902"/>
    </g>
   </g>
   <g id="line2d_109">
    <path clip-path="url(#p92a26c18f0)" d="M 19.657052 145.114216 
" style="fill:none;stroke:#008000;stroke-linecap:square;stroke-width:1.5;"/>
    <g clip-path="url(#p92a26c18f0)">
     <use style="fill:#008000;stroke:#008000;" x="19.657052" xlink:href="#md171ed7745" y="145.114216"/>
    </g>
   </g>
   <g id="line2d_110">
    <path clip-path="url(#p92a26c18f0)" d="M 65.824279 142.248105 
" style="fill:none;stroke:#008000;stroke-linecap:square;stroke-width:1.5;"/>
    <g clip-path="url(#p92a26c18f0)">
     <use style="fill:#008000;stroke:#008000;" x="65.824279" xlink:href="#md171ed7745" y="142.248105"/>
    </g>
   </g>
   <g id="line2d_111">
    <path clip-path="url(#p92a26c18f0)" d="M 109.281125 127.014286 
" style="fill:none;stroke:#008000;stroke-linecap:square;stroke-width:1.5;"/>
    <g clip-path="url(#p92a26c18f0)">
     <use style="fill:#008000;stroke:#008000;" x="109.281125" xlink:href="#md171ed7745" y="127.014286"/>
    </g>
   </g>
   <g id="line2d_112">
    <path clip-path="url(#p92a26c18f0)" d="M 146.117188 99.130637 
" style="fill:none;stroke:#008000;stroke-linecap:square;stroke-width:1.5;"/>
    <g clip-path="url(#p92a26c18f0)">
     <use style="fill:#008000;stroke:#008000;" x="146.117188" xlink:href="#md171ed7745" y="99.130637"/>
    </g>
   </g>
   <g id="line2d_113">
    <path clip-path="url(#p92a26c18f0)" d="M 181.988076 69.940719 
" style="fill:none;stroke:#008000;stroke-linecap:square;stroke-width:1.5;"/>
    <g clip-path="url(#p92a26c18f0)">
     <use style="fill:#008000;stroke:#008000;" x="181.988076" xlink:href="#md171ed7745" y="69.940719"/>
    </g>
   </g>
   <g id="line2d_114">
    <path clip-path="url(#p92a26c18f0)" d="M 224.259445 51.673316 
" style="fill:none;stroke:#008000;stroke-linecap:square;stroke-width:1.5;"/>
    <g clip-path="url(#p92a26c18f0)">
     <use style="fill:#008000;stroke:#008000;" x="224.259445" xlink:href="#md171ed7745" y="51.673316"/>
    </g>
   </g>
   <g id="line2d_115">
    <path clip-path="url(#p92a26c18f0)" d="M 270.241447 49.178893 
" style="fill:none;stroke:#008000;stroke-linecap:square;stroke-width:1.5;"/>
    <g clip-path="url(#p92a26c18f0)">
     <use style="fill:#008000;stroke:#008000;" x="270.241447" xlink:href="#md171ed7745" y="49.178893"/>
    </g>
   </g>
   <g id="line2d_116">
    <path clip-path="url(#p92a26c18f0)" d="M 314.240871 62.766293 
" style="fill:none;stroke:#008000;stroke-linecap:square;stroke-width:1.5;"/>
    <g clip-path="url(#p92a26c18f0)">
     <use style="fill:#008000;stroke:#008000;" x="314.240871" xlink:href="#md171ed7745" y="62.766293"/>
    </g>
   </g>
   <g id="line2d_117">
    <path clip-path="url(#p92a26c18f0)" d="M 350.809973 90.753209 
" style="fill:none;stroke:#008000;stroke-linecap:square;stroke-width:1.5;"/>
    <g clip-path="url(#p92a26c18f0)">
     <use style="fill:#008000;stroke:#008000;" x="350.809973" xlink:href="#md171ed7745" y="90.753209"/>
    </g>
   </g>
   <g id="line2d_118">
    <path clip-path="url(#p92a26c18f0)" d="M 377.154301 128.705412 
" style="fill:none;stroke:#008000;stroke-linecap:square;stroke-width:1.5;"/>
    <g clip-path="url(#p92a26c18f0)">
     <use style="fill:#008000;stroke:#008000;" x="377.154301" xlink:href="#md171ed7745" y="128.705412"/>
    </g>
   </g>
   <g id="line2d_119">
    <path clip-path="url(#p92a26c18f0)" d="M 402.175237 167.599174 
" style="fill:none;stroke:#008000;stroke-linecap:square;stroke-width:1.5;"/>
    <g clip-path="url(#p92a26c18f0)">
     <use style="fill:#008000;stroke:#008000;" x="402.175237" xlink:href="#md171ed7745" y="167.599174"/>
    </g>
   </g>
   <g id="line2d_120">
    <path clip-path="url(#p92a26c18f0)" d="M 436.674655 198.100925 
" style="fill:none;stroke:#008000;stroke-linecap:square;stroke-width:1.5;"/>
    <g clip-path="url(#p92a26c18f0)">
     <use style="fill:#008000;stroke:#008000;" x="436.674655" xlink:href="#md171ed7745" y="198.100925"/>
    </g>
   </g>
   <g id="line2d_121">
    <path clip-path="url(#p92a26c18f0)" d="M 479.60362 214.764379 
" style="fill:none;stroke:#008000;stroke-linecap:square;stroke-width:1.5;"/>
    <g clip-path="url(#p92a26c18f0)">
     <use style="fill:#008000;stroke:#008000;" x="479.60362" xlink:href="#md171ed7745" y="214.764379"/>
    </g>
   </g>
   <g id="line2d_122">
    <path clip-path="url(#p92a26c18f0)" d="M 525.646926 215.526369 
" style="fill:none;stroke:#008000;stroke-linecap:square;stroke-width:1.5;"/>
    <g clip-path="url(#p92a26c18f0)">
     <use style="fill:#008000;stroke:#008000;" x="525.646926" xlink:href="#md171ed7745" y="215.526369"/>
    </g>
   </g>
   <g id="line2d_123">
    <path clip-path="url(#p92a26c18f0)" d="M 569.103772 200.29255 
" style="fill:none;stroke:#008000;stroke-linecap:square;stroke-width:1.5;"/>
    <g clip-path="url(#p92a26c18f0)">
     <use style="fill:#008000;stroke:#008000;" x="569.103772" xlink:href="#md171ed7745" y="200.29255"/>
    </g>
   </g>
   <g id="line2d_124">
    <path clip-path="url(#p92a26c18f0)" d="M 605.939834 172.408902 
" style="fill:none;stroke:#008000;stroke-linecap:square;stroke-width:1.5;"/>
    <g clip-path="url(#p92a26c18f0)">
     <use style="fill:#008000;stroke:#008000;" x="605.939834" xlink:href="#md171ed7745" y="172.408902"/>
    </g>
   </g>
  </g>
 </g>
 <defs>
  <clipPath id="p92a26c18f0">
   <rect height="277.2" width="672.948" x="7.2" y="7.2"/>
  </clipPath>
 </defs>
</svg>
