<?xml version="1.0" encoding="utf-8" standalone="no"?>
<!DOCTYPE svg PUBLIC "-//W3C//DTD SVG 1.1//EN"
  "http://www.w3.org/Graphics/SVG/1.1/DTD/svg11.dtd">
<!-- Created with matplotlib (https://matplotlib.org/) -->
<svg height="291.6pt" version="1.1" viewBox="0 0 921.15 291.6" width="921.15pt" xmlns="http://www.w3.org/2000/svg" xmlns:xlink="http://www.w3.org/1999/xlink">
 <metadata>
  <rdf:RDF xmlns:cc="http://creativecommons.org/ns#" xmlns:dc="http://purl.org/dc/elements/1.1/" xmlns:rdf="http://www.w3.org/1999/02/22-rdf-syntax-ns#">
   <cc:Work>
    <dc:type rdf:resource="http://purl.org/dc/dcmitype/StillImage"/>
    <dc:date>2022-04-28T16:44:35.722696</dc:date>
    <dc:format>image/svg+xml</dc:format>
    <dc:creator>
     <cc:Agent>
      <dc:title>Matplotlib v3.3.4, https://matplotlib.org/</dc:title>
     </cc:Agent>
    </dc:creator>
   </cc:Work>
  </rdf:RDF>
 </metadata>
 <defs>
  <style type="text/css">*{stroke-linecap:butt;stroke-linejoin:round;}</style>
 </defs>
 <g id="figure_1">
  <g id="patch_1">
   <path d="M 0 291.6 
L 921.15 291.6 
L 921.15 0 
L 0 0 
z
" style="fill:#ffffff;"/>
  </g>
  <g id="axes_1">
   <g id="PolyCollection_1">
    <path clip-path="url(#pa0debf68b6)" d="M -613.575 284.4 
L -599.715 284.4 
L -585.855 284.4 
L -571.995 284.4 
L -558.135 284.4 
L -544.275 284.4 
L -530.415 284.4 
L -516.555 284.4 
L -502.695 284.4 
L -488.835 284.4 
L -474.975 284.4 
L -461.115 284.4 
L -447.255 284.4 
L -433.395 284.4 
L -419.535 284.4 
L -405.675 284.4 
L -391.815 284.4 
L -377.955 284.4 
L -364.095 284.4 
L -350.235 284.4 
L -336.375 284.4 
L -322.515 284.4 
L -308.655 284.4 
L -294.795 284.4 
L -280.935 284.4 
L -267.075 284.4 
L -253.215 284.4 
L -239.355 284.4 
L -225.495 284.4 
L -211.635 284.4 
L -197.775 284.4 
L -183.915 284.4 
L -170.055 284.4 
L -156.195 284.4 
L -142.335 284.4 
L -128.475 284.4 
L -114.615 284.4 
L -100.755 284.4 
L -86.895 284.4 
L -73.035 284.4 
L -59.175 284.4 
L -45.315 284.4 
L -31.455 284.4 
L -17.595 284.4 
L -3.735 284.4 
L 10.125 284.4 
L 23.985 284.4 
L 37.845 284.4 
L 51.705 284.4 
L 65.565 284.4 
L 79.425 284.4 
L 93.285 284.4 
L 107.145 284.4 
L 121.005 284.4 
L 134.865 284.4 
L 148.725 284.4 
L 162.585 284.4 
L 176.445 284.4 
L 190.305 284.4 
L 204.165 284.4 
L 218.025 284.4 
L 231.885 284.4 
L 245.745 284.4 
L 259.605 284.4 
L 273.465 284.4 
L 287.325 284.4 
L 301.185 284.4 
L 315.045 284.4 
L 328.905 284.4 
L 342.765 284.4 
L 356.625 284.4 
L 370.485 284.4 
L 384.345 284.4 
L 398.205 284.4 
L 412.065 284.4 
L 425.925 284.4 
L 439.785 284.4 
L 453.645 284.4 
L 467.505 284.4 
L 481.365 284.4 
L 495.225 284.4 
L 509.085 284.4 
L 522.945 284.4 
L 536.805 284.4 
L 550.665 284.4 
L 564.525 284.4 
L 578.385 284.4 
L 592.245 284.4 
L 606.105 284.4 
L 619.965 284.4 
L 633.825 284.4 
L 647.685 284.4 
L 661.545 284.4 
L 675.405 284.4 
L 689.265 284.4 
L 703.125 284.4 
L 716.985 284.4 
L 730.845 284.4 
L 744.705 284.4 
L 758.565 284.4 
L 772.425 284.4 
L 786.285 284.4 
L 800.145 284.4 
L 814.005 284.4 
L 827.865 284.4 
L 841.725 284.4 
L 855.585 284.4 
L 869.445 284.4 
L 883.305 284.4 
L 897.165 284.4 
L 911.025 284.4 
L 924.885 284.4 
L 938.745 284.4 
L 952.605 284.4 
L 966.465 284.4 
L 980.325 284.4 
L 994.185 284.4 
L 1008.045 284.4 
L 1021.905 284.4 
L 1035.765 284.4 
L 1049.625 284.4 
L 1063.485 284.4 
L 1077.345 284.4 
L 1091.205 284.4 
L 1105.065 284.4 
L 1118.925 284.4 
L 1132.785 284.4 
L 1146.645 284.4 
L 1160.505 284.4 
L 1174.365 284.4 
L 1188.225 284.4 
L 1202.085 284.4 
L 1215.945 284.4 
L 1229.805 284.4 
L 1243.665 284.4 
L 1257.525 284.4 
L 1271.385 284.4 
L 1285.245 284.4 
L 1299.105 284.4 
L 1312.965 284.4 
L 1326.825 284.4 
L 1340.685 284.4 
L 1354.545 284.4 
L 1368.405 284.4 
L 1382.265 284.4 
L 1396.125 284.4 
L 1409.985 284.4 
L 1423.845 284.4 
L 1437.705 284.4 
L 1451.565 284.4 
L 1465.425 284.4 
L 1479.285 284.4 
L 1493.145 284.4 
L 1507.005 284.4 
L 1520.865 284.4 
L 1534.725 284.4 
L 1548.585 284.4 
L 1562.445 284.4 
L 1576.305 284.4 
L 1590.165 284.4 
L 1604.025 284.4 
L 1617.885 284.4 
L 1631.745 284.4 
L 1645.605 284.4 
L 1659.465 284.4 
L 1673.325 284.4 
L 1687.185 284.4 
L 1701.045 284.4 
L 1714.905 284.4 
L 1728.765 284.4 
L 1742.625 284.4 
L 1756.485 284.4 
L 1770.345 284.4 
L 1784.205 284.4 
L 1798.065 284.4 
L 1811.925 284.4 
L 1825.785 284.4 
L 1839.645 284.4 
L 1853.505 284.4 
L 1867.365 284.4 
L 1881.225 284.4 
L 1895.085 284.4 
L 1908.945 284.4 
L 1922.805 284.4 
L 1936.665 284.4 
L 1950.525 284.4 
L 1964.385 284.4 
L 1978.245 284.4 
L 1992.105 284.4 
L 2005.965 284.4 
L 2019.825 284.4 
L 2033.685 284.4 
L 2047.545 284.4 
L 2061.405 284.4 
L 2075.265 284.4 
L 2089.125 284.4 
L 2102.985 284.4 
L 2116.845 284.4 
L 2130.705 284.4 
L 2144.565 284.4 
L 2158.425 284.4 
L 2172.285 284.4 
L 2186.145 284.4 
L 2200.005 284.4 
L 2213.865 284.4 
L 2227.725 284.4 
L 2241.585 284.4 
L 2255.445 284.4 
L 2269.305 284.4 
L 2283.165 284.4 
L 2283.165 145.8 
L 2269.305 145.8 
L 2255.445 145.8 
L 2241.585 145.8 
L 2227.725 145.8 
L 2213.865 145.8 
L 2200.005 145.8 
L 2186.145 145.8 
L 2172.285 145.8 
L 2158.425 145.8 
L 2144.565 145.8 
L 2130.705 145.8 
L 2116.845 145.8 
L 2102.985 145.8 
L 2089.125 145.8 
L 2075.265 145.8 
L 2061.405 145.8 
L 2047.545 145.8 
L 2033.685 145.8 
L 2019.825 145.8 
L 2005.965 145.8 
L 1992.105 145.8 
L 1978.245 145.8 
L 1964.385 145.8 
L 1950.525 145.8 
L 1936.665 145.8 
L 1922.805 145.8 
L 1908.945 145.8 
L 1895.085 145.8 
L 1881.225 145.8 
L 1867.365 145.8 
L 1853.505 145.8 
L 1839.645 145.8 
L 1825.785 145.8 
L 1811.925 145.8 
L 1798.065 145.8 
L 1784.205 145.8 
L 1770.345 145.8 
L 1756.485 145.8 
L 1742.625 145.8 
L 1728.765 145.8 
L 1714.905 145.8 
L 1701.045 145.8 
L 1687.185 145.8 
L 1673.325 145.8 
L 1659.465 145.8 
L 1645.605 145.8 
L 1631.745 145.8 
L 1617.885 145.8 
L 1604.025 145.8 
L 1590.165 145.8 
L 1576.305 145.8 
L 1562.445 145.8 
L 1548.585 145.8 
L 1534.725 145.8 
L 1520.865 145.8 
L 1507.005 145.8 
L 1493.145 145.8 
L 1479.285 145.8 
L 1465.425 145.8 
L 1451.565 145.8 
L 1437.705 145.8 
L 1423.845 145.8 
L 1409.985 145.8 
L 1396.125 145.8 
L 1382.265 145.8 
L 1368.405 145.8 
L 1354.545 145.8 
L 1340.685 145.8 
L 1326.825 145.8 
L 1312.965 145.8 
L 1299.105 145.8 
L 1285.245 145.8 
L 1271.385 145.8 
L 1257.525 145.8 
L 1243.665 145.8 
L 1229.805 145.8 
L 1215.945 145.8 
L 1202.085 145.8 
L 1188.225 145.8 
L 1174.365 145.8 
L 1160.505 145.8 
L 1146.645 145.8 
L 1132.785 145.8 
L 1118.925 145.8 
L 1105.065 145.8 
L 1091.205 145.8 
L 1077.345 145.8 
L 1063.485 145.8 
L 1049.625 145.8 
L 1035.765 145.8 
L 1021.905 145.8 
L 1008.045 145.8 
L 994.185 145.8 
L 980.325 145.8 
L 966.465 145.8 
L 952.605 145.8 
L 938.745 145.8 
L 924.885 145.8 
L 911.025 145.8 
L 897.165 145.8 
L 883.305 145.8 
L 869.445 145.8 
L 855.585 145.8 
L 841.725 145.8 
L 827.865 145.8 
L 814.005 145.8 
L 800.145 145.8 
L 786.285 145.8 
L 772.425 145.8 
L 758.565 145.8 
L 744.705 145.8 
L 730.845 145.8 
L 716.985 145.8 
L 703.125 145.8 
L 689.265 145.8 
L 675.405 145.8 
L 661.545 145.8 
L 647.685 145.8 
L 633.825 145.8 
L 619.965 145.8 
L 606.105 145.8 
L 592.245 145.8 
L 578.385 145.8 
L 564.525 145.8 
L 550.665 145.8 
L 536.805 145.8 
L 522.945 145.8 
L 509.085 145.8 
L 495.225 145.8 
L 481.365 145.8 
L 467.505 145.8 
L 453.645 145.8 
L 439.785 145.8 
L 425.925 145.8 
L 412.065 145.8 
L 398.205 145.8 
L 384.345 145.8 
L 370.485 145.8 
L 356.625 145.8 
L 342.765 145.8 
L 328.905 145.8 
L 315.045 145.8 
L 301.185 145.8 
L 287.325 145.8 
L 273.465 145.8 
L 259.605 145.8 
L 245.745 145.8 
L 231.885 145.8 
L 218.025 145.8 
L 204.165 145.8 
L 190.305 145.8 
L 176.445 145.8 
L 162.585 145.8 
L 148.725 145.8 
L 134.865 145.8 
L 121.005 145.8 
L 107.145 145.8 
L 93.285 145.8 
L 79.425 145.8 
L 65.565 145.8 
L 51.705 145.8 
L 37.845 145.8 
L 23.985 145.8 
L 10.125 145.8 
L -3.735 145.8 
L -17.595 145.8 
L -31.455 145.8 
L -45.315 145.8 
L -59.175 145.8 
L -73.035 145.8 
L -86.895 145.8 
L -100.755 145.8 
L -114.615 145.8 
L -128.475 145.8 
L -142.335 145.8 
L -156.195 145.8 
L -170.055 145.8 
L -183.915 145.8 
L -197.775 145.8 
L -211.635 145.8 
L -225.495 145.8 
L -239.355 145.8 
L -253.215 145.8 
L -267.075 145.8 
L -280.935 145.8 
L -294.795 145.8 
L -308.655 145.8 
L -322.515 145.8 
L -336.375 145.8 
L -350.235 145.8 
L -364.095 145.8 
L -377.955 145.8 
L -391.815 145.8 
L -405.675 145.8 
L -419.535 145.8 
L -433.395 145.8 
L -447.255 145.8 
L -461.115 145.8 
L -474.975 145.8 
L -488.835 145.8 
L -502.695 145.8 
L -516.555 145.8 
L -530.415 145.8 
L -544.275 145.8 
L -558.135 145.8 
L -571.995 145.8 
L -585.855 145.8 
L -599.715 145.8 
L -613.575 145.8 
z
" style="fill:#c7c7c7;"/>
    <path clip-path="url(#pa0debf68b6)" d="M -613.575 145.8 
L -599.715 145.8 
L -585.855 145.8 
L -571.995 145.8 
L -558.135 145.8 
L -544.275 145.8 
L -530.415 145.8 
L -516.555 145.8 
L -502.695 145.8 
L -488.835 145.8 
L -474.975 145.8 
L -461.115 145.8 
L -447.255 145.8 
L -433.395 145.8 
L -419.535 145.8 
L -405.675 145.8 
L -391.815 145.8 
L -377.955 145.8 
L -364.095 145.8 
L -350.235 145.8 
L -336.375 145.8 
L -322.515 145.8 
L -308.655 145.8 
L -294.795 145.8 
L -280.935 145.8 
L -267.075 145.8 
L -253.215 145.8 
L -239.355 145.8 
L -225.495 145.8 
L -211.635 145.8 
L -197.775 145.8 
L -183.915 145.8 
L -170.055 145.8 
L -156.195 145.8 
L -142.335 145.8 
L -128.475 145.8 
L -114.615 145.8 
L -100.755 145.8 
L -86.895 145.8 
L -73.035 145.8 
L -59.175 145.8 
L -45.315 145.8 
L -31.455 145.8 
L -17.595 145.8 
L -3.735 145.8 
L 10.125 145.8 
L 23.985 145.8 
L 37.845 145.8 
L 51.705 145.8 
L 65.565 145.8 
L 79.425 145.8 
L 93.285 145.8 
L 107.145 145.8 
L 121.005 145.8 
L 134.865 145.8 
L 148.725 145.8 
L 162.585 145.8 
L 176.445 145.8 
L 190.305 145.8 
L 204.165 145.8 
L 218.025 145.8 
L 231.885 145.8 
L 245.745 145.8 
L 259.605 145.8 
L 273.465 145.8 
L 287.325 145.8 
L 301.185 145.8 
L 315.045 145.8 
L 328.905 145.8 
L 342.765 145.8 
L 356.625 145.8 
L 370.485 145.8 
L 384.345 145.8 
L 398.205 145.8 
L 412.065 145.8 
L 425.925 145.8 
L 439.785 145.8 
L 453.645 145.8 
L 467.505 145.8 
L 481.365 145.8 
L 495.225 145.8 
L 509.085 145.8 
L 522.945 145.8 
L 536.805 145.8 
L 550.665 145.8 
L 564.525 145.8 
L 578.385 145.8 
L 592.245 145.8 
L 606.105 145.8 
L 619.965 145.8 
L 633.825 145.8 
L 647.685 145.8 
L 661.545 145.8 
L 675.405 145.8 
L 689.265 145.8 
L 703.125 145.8 
L 716.985 145.8 
L 730.845 145.8 
L 744.705 145.8 
L 758.565 145.8 
L 772.425 145.8 
L 786.285 145.8 
L 800.145 145.8 
L 814.005 145.8 
L 827.865 145.8 
L 841.725 145.8 
L 855.585 145.8 
L 869.445 145.8 
L 883.305 145.8 
L 897.165 145.8 
L 911.025 145.8 
L 924.885 145.8 
L 938.745 145.8 
L 952.605 145.8 
L 966.465 145.8 
L 980.325 145.8 
L 994.185 145.8 
L 1008.045 145.8 
L 1021.905 145.8 
L 1035.765 145.8 
L 1049.625 145.8 
L 1063.485 145.8 
L 1077.345 145.8 
L 1091.205 145.8 
L 1105.065 145.8 
L 1118.925 145.8 
L 1132.785 145.8 
L 1146.645 145.8 
L 1160.505 145.8 
L 1174.365 145.8 
L 1188.225 145.8 
L 1202.085 145.8 
L 1215.945 145.8 
L 1229.805 145.8 
L 1243.665 145.8 
L 1257.525 145.8 
L 1271.385 145.8 
L 1285.245 145.8 
L 1299.105 145.8 
L 1312.965 145.8 
L 1326.825 145.8 
L 1340.685 145.8 
L 1354.545 145.8 
L 1368.405 145.8 
L 1382.265 145.8 
L 1396.125 145.8 
L 1409.985 145.8 
L 1423.845 145.8 
L 1437.705 145.8 
L 1451.565 145.8 
L 1465.425 145.8 
L 1479.285 145.8 
L 1493.145 145.8 
L 1507.005 145.8 
L 1520.865 145.8 
L 1534.725 145.8 
L 1548.585 145.8 
L 1562.445 145.8 
L 1576.305 145.8 
L 1590.165 145.8 
L 1604.025 145.8 
L 1617.885 145.8 
L 1631.745 145.8 
L 1645.605 145.8 
L 1659.465 145.8 
L 1673.325 145.8 
L 1687.185 145.8 
L 1701.045 145.8 
L 1714.905 145.8 
L 1728.765 145.8 
L 1742.625 145.8 
L 1756.485 145.8 
L 1770.345 145.8 
L 1784.205 145.8 
L 1798.065 145.8 
L 1811.925 145.8 
L 1825.785 145.8 
L 1839.645 145.8 
L 1853.505 145.8 
L 1867.365 145.8 
L 1881.225 145.8 
L 1895.085 145.8 
L 1908.945 145.8 
L 1922.805 145.8 
L 1936.665 145.8 
L 1950.525 145.8 
L 1964.385 145.8 
L 1978.245 145.8 
L 1992.105 145.8 
L 2005.965 145.8 
L 2019.825 145.8 
L 2033.685 145.8 
L 2047.545 145.8 
L 2061.405 145.8 
L 2075.265 145.8 
L 2089.125 145.8 
L 2102.985 145.8 
L 2116.845 145.8 
L 2130.705 145.8 
L 2144.565 145.8 
L 2158.425 145.8 
L 2172.285 145.8 
L 2186.145 145.8 
L 2200.005 145.8 
L 2213.865 145.8 
L 2227.725 145.8 
L 2241.585 145.8 
L 2255.445 145.8 
L 2269.305 145.8 
L 2283.165 145.8 
L 2283.165 7.2 
L 2269.305 7.2 
L 2255.445 7.2 
L 2241.585 7.2 
L 2227.725 7.2 
L 2213.865 7.2 
L 2200.005 7.2 
L 2186.145 7.2 
L 2172.285 7.2 
L 2158.425 7.2 
L 2144.565 7.2 
L 2130.705 7.2 
L 2116.845 7.2 
L 2102.985 7.2 
L 2089.125 7.2 
L 2075.265 7.2 
L 2061.405 7.2 
L 2047.545 7.2 
L 2033.685 7.2 
L 2019.825 7.2 
L 2005.965 7.2 
L 1992.105 7.2 
L 1978.245 7.2 
L 1964.385 7.2 
L 1950.525 7.2 
L 1936.665 7.2 
L 1922.805 7.2 
L 1908.945 7.2 
L 1895.085 7.2 
L 1881.225 7.2 
L 1867.365 7.2 
L 1853.505 7.2 
L 1839.645 7.2 
L 1825.785 7.2 
L 1811.925 7.2 
L 1798.065 7.2 
L 1784.205 7.2 
L 1770.345 7.2 
L 1756.485 7.2 
L 1742.625 7.2 
L 1728.765 7.2 
L 1714.905 7.2 
L 1701.045 7.2 
L 1687.185 7.2 
L 1673.325 7.2 
L 1659.465 7.2 
L 1645.605 7.2 
L 1631.745 7.2 
L 1617.885 7.2 
L 1604.025 7.2 
L 1590.165 7.2 
L 1576.305 7.2 
L 1562.445 7.2 
L 1548.585 7.2 
L 1534.725 7.2 
L 1520.865 7.2 
L 1507.005 7.2 
L 1493.145 7.2 
L 1479.285 7.2 
L 1465.425 7.2 
L 1451.565 7.2 
L 1437.705 7.2 
L 1423.845 7.2 
L 1409.985 7.2 
L 1396.125 7.2 
L 1382.265 7.2 
L 1368.405 7.2 
L 1354.545 7.2 
L 1340.685 7.2 
L 1326.825 7.2 
L 1312.965 7.2 
L 1299.105 7.2 
L 1285.245 7.2 
L 1271.385 7.2 
L 1257.525 7.2 
L 1243.665 7.2 
L 1229.805 7.2 
L 1215.945 7.2 
L 1202.085 7.2 
L 1188.225 7.2 
L 1174.365 7.2 
L 1160.505 7.2 
L 1146.645 7.2 
L 1132.785 7.2 
L 1118.925 7.2 
L 1105.065 7.2 
L 1091.205 7.2 
L 1077.345 7.2 
L 1063.485 7.2 
L 1049.625 7.2 
L 1035.765 7.2 
L 1021.905 7.2 
L 1008.045 7.2 
L 994.185 7.2 
L 980.325 7.2 
L 966.465 7.2 
L 952.605 7.2 
L 938.745 7.2 
L 924.885 7.2 
L 911.025 7.2 
L 897.165 7.2 
L 883.305 7.2 
L 869.445 7.2 
L 855.585 7.2 
L 841.725 7.2 
L 827.865 7.2 
L 814.005 7.2 
L 800.145 7.2 
L 786.285 7.2 
L 772.425 7.2 
L 758.565 7.2 
L 744.705 7.2 
L 730.845 7.2 
L 716.985 7.2 
L 703.125 7.2 
L 689.265 7.2 
L 675.405 7.2 
L 661.545 7.2 
L 647.685 7.2 
L 633.825 7.2 
L 619.965 7.2 
L 606.105 7.2 
L 592.245 7.2 
L 578.385 7.2 
L 564.525 7.2 
L 550.665 7.2 
L 536.805 7.2 
L 522.945 7.2 
L 509.085 7.2 
L 495.225 7.2 
L 481.365 7.2 
L 467.505 7.2 
L 453.645 7.2 
L 439.785 7.2 
L 425.925 7.2 
L 412.065 7.2 
L 398.205 7.2 
L 384.345 7.2 
L 370.485 7.2 
L 356.625 7.2 
L 342.765 7.2 
L 328.905 7.2 
L 315.045 7.2 
L 301.185 7.2 
L 287.325 7.2 
L 273.465 7.2 
L 259.605 7.2 
L 245.745 7.2 
L 231.885 7.2 
L 218.025 7.2 
L 204.165 7.2 
L 190.305 7.2 
L 176.445 7.2 
L 162.585 7.2 
L 148.725 7.2 
L 134.865 7.2 
L 121.005 7.2 
L 107.145 7.2 
L 93.285 7.2 
L 79.425 7.2 
L 65.565 7.2 
L 51.705 7.2 
L 37.845 7.2 
L 23.985 7.2 
L 10.125 7.2 
L -3.735 7.2 
L -17.595 7.2 
L -31.455 7.2 
L -45.315 7.2 
L -59.175 7.2 
L -73.035 7.2 
L -86.895 7.2 
L -100.755 7.2 
L -114.615 7.2 
L -128.475 7.2 
L -142.335 7.2 
L -156.195 7.2 
L -170.055 7.2 
L -183.915 7.2 
L -197.775 7.2 
L -211.635 7.2 
L -225.495 7.2 
L -239.355 7.2 
L -253.215 7.2 
L -267.075 7.2 
L -280.935 7.2 
L -294.795 7.2 
L -308.655 7.2 
L -322.515 7.2 
L -336.375 7.2 
L -350.235 7.2 
L -364.095 7.2 
L -377.955 7.2 
L -391.815 7.2 
L -405.675 7.2 
L -419.535 7.2 
L -433.395 7.2 
L -447.255 7.2 
L -461.115 7.2 
L -474.975 7.2 
L -488.835 7.2 
L -502.695 7.2 
L -516.555 7.2 
L -530.415 7.2 
L -544.275 7.2 
L -558.135 7.2 
L -571.995 7.2 
L -585.855 7.2 
L -599.715 7.2 
L -613.575 7.2 
z
" style="fill:#c7c7c7;"/>
   </g>
   <g id="PathCollection_1"/>
   <g id="PathCollection_2">
    <path clip-path="url(#pa0debf68b6)" d="M -613.575 225.495 
L -592.785 215.1 
L -613.575 204.705 
z
" style="fill:#dddddd;stroke:#dddddd;stroke-width:0.5;"/>
    <path clip-path="url(#pa0debf68b6)" d="M -613.575 86.895 
L -592.785 76.5 
L -613.575 66.105 
z
" style="fill:#dddddd;stroke:#dddddd;stroke-width:0.5;"/>
   </g>
   <g id="PathCollection_3">
    <path clip-path="url(#pa0debf68b6)" d="M -1 284.4 
L 922.15 284.4 
L 922.15 284.4 
" style="fill:none;stroke:#555555;stroke-width:0.5;"/>
    <path clip-path="url(#pa0debf68b6)" d="M -1 145.8 
L 922.15 145.8 
L 922.15 145.8 
" style="fill:none;stroke:#555555;stroke-width:0.5;"/>
   </g>
   <g id="PathCollection_4">
    <path clip-path="url(#pa0debf68b6)" d="M -1 145.8 
L 922.15 145.8 
L 922.15 145.8 
" style="fill:none;stroke:#555555;stroke-width:0.5;"/>
    <path clip-path="url(#pa0debf68b6)" d="M -1 7.2 
L 922.15 7.2 
L 922.15 7.2 
" style="fill:none;stroke:#555555;stroke-width:0.5;"/>
   </g>
   <g id="PatchCollection_1">
    <path clip-path="url(#pa0debf68b6)" d="M 79.425 158.735954 
C 83.100715 158.735954 86.626377 157.275577 89.2255 154.676454 
C 91.824623 152.077331 93.285 148.551669 93.285 144.875954 
C 93.285 141.200239 91.824623 137.674577 89.2255 135.075454 
C 86.626377 132.476331 83.100715 131.015954 79.425 131.015954 
C 75.749285 131.015954 72.223623 132.476331 69.6245 135.075454 
C 67.025377 137.674577 65.565 141.200239 65.565 144.875954 
C 65.565 148.551669 67.025377 152.077331 69.6245 154.676454 
C 72.223623 157.275577 75.749285 158.735954 79.425 158.735954 
z
" style="fill:#008000;stroke:#008000;"/>
    <path clip-path="url(#pa0debf68b6)" d="M 191.668548 142.630783 
L 142.115144 160.257311 
L 141.893399 149.171528 
L 79.535873 150.418845 
L 79.314127 139.333063 
L 141.671654 138.085746 
L 141.449909 126.999963 
z
" style="fill:#008000;stroke:#008000;"/>
    <path clip-path="url(#pa0debf68b6)" d="M 772.425 170.748 
L 772.425 120.852 
L 841.725 120.852 
L 841.725 170.748 
z
" style="fill:#f1b514;stroke:#302404;stroke-width:0.5;"/>
    <path clip-path="url(#pa0debf68b6)" d="M 270.1386 131.94 
L 270.1386 62.64 
L 308.9466 62.64 
L 308.9466 131.94 
z
" style="fill:#d95558;stroke:#831d20;stroke-width:0.5;"/>
    <path clip-path="url(#pa0debf68b6)" d="M 270.1386 284.4 
L 270.1386 173.52 
L 308.9466 173.52 
L 308.9466 284.4 
z
" style="fill:#d95558;stroke:#831d20;stroke-width:0.5;"/>
    <path clip-path="url(#pa0debf68b6)" d="M 547.3386 76.5 
L 547.3386 7.2 
L 586.1466 7.2 
L 586.1466 76.5 
z
" style="fill:#d95558;stroke:#831d20;stroke-width:0.5;"/>
    <path clip-path="url(#pa0debf68b6)" d="M 547.3386 180.45 
L 547.3386 111.15 
L 586.1466 111.15 
L 586.1466 180.45 
z
" style="fill:#d95558;stroke:#831d20;stroke-width:0.5;"/>
    <path clip-path="url(#pa0debf68b6)" d="M 547.3386 284.4 
L 547.3386 215.1 
L 586.1466 215.1 
L 586.1466 284.4 
z
" style="fill:#d95558;stroke:#831d20;stroke-width:0.5;"/>
    <path clip-path="url(#pa0debf68b6)" d="M 720.5886 96.925693 
L 720.5886 78.250307 
L 745.5366 78.250307 
L 745.5366 96.925693 
z
" style="fill:#d95558;stroke:#831d20;stroke-width:0.5;"/>
    <path clip-path="url(#pa0debf68b6)" d="M 79.425 151.805954 
C 81.262857 151.805954 83.025689 151.075765 84.32525 149.776204 
C 85.624811 148.476642 86.355 146.713811 86.355 144.875954 
C 86.355 143.038096 85.624811 141.275265 84.32525 139.975704 
C 83.025689 138.676142 81.262857 137.945954 79.425 137.945954 
C 77.587143 137.945954 75.824311 138.676142 74.52475 139.975704 
C 73.225189 141.275265 72.495 143.038096 72.495 144.875954 
C 72.495 146.713811 73.225189 148.476642 74.52475 149.776204 
C 75.824311 151.075765 77.587143 151.805954 79.425 151.805954 
z
" style="fill:#1d7eea;stroke:#00478f;stroke-width:0.5;"/>
   </g>
   <g id="line2d_1">
    <path clip-path="url(#pa0debf68b6)" d="M 79.425 144.875954 
" style="fill:none;stroke:#ffd700;stroke-linecap:square;stroke-width:2;"/>
   </g>
   <g id="line2d_2">
    <path clip-path="url(#pa0debf68b6)" d="M 79.425 144.875954 
L 91.899 144.626474 
L 104.373 144.376994 
L 116.847 144.127514 
L 129.321 143.878034 
L 141.795 143.628554 
" style="fill:none;stroke:#ffd700;stroke-linecap:square;stroke-width:2;"/>
   </g>
   <g id="line2d_3">
    <path clip-path="url(#pa0debf68b6)" d="M 79.425 144.875954 
L 91.899 144.626474 
L 104.370878 144.289909 
L 116.832729 143.691933 
L 129.265616 142.658002 
L 141.632085 141.014071 
" style="fill:none;stroke:#ffd700;stroke-linecap:square;stroke-width:2;"/>
   </g>
   <g id="line2d_4">
    <path clip-path="url(#pa0debf68b6)" d="M 79.425 144.875954 
L 91.899 144.626474 
L 104.374362 144.464094 
L 116.850157 144.563317 
L 129.314442 145.099305 
L 141.736752 146.24746 
" style="fill:none;stroke:#ffd700;stroke-linecap:square;stroke-width:2;"/>
   </g>
   <g id="line2d_5">
    <path clip-path="url(#pa0debf68b6)" d="M 141.795 143.628554 
L 154.269 143.379074 
L 166.743 143.129594 
L 179.217 142.880114 
L 191.691 142.630634 
L 204.165 142.381154 
" style="fill:none;stroke:#ffd700;stroke-linecap:square;stroke-width:2;"/>
   </g>
   <g id="line2d_6">
    <path clip-path="url(#pa0debf68b6)" d="M 141.795 143.628554 
L 154.269 143.379074 
L 166.740878 143.042509 
L 179.202729 142.444533 
L 191.635616 141.410602 
L 204.002085 139.766671 
" style="fill:none;stroke:#ffd700;stroke-linecap:square;stroke-width:2;"/>
   </g>
   <g id="line2d_7">
    <path clip-path="url(#pa0debf68b6)" d="M 141.795 143.628554 
L 154.269 143.379074 
L 166.744362 143.216694 
L 179.220157 143.315917 
L 191.684442 143.851905 
L 204.106752 145.00006 
" style="fill:none;stroke:#ffd700;stroke-linecap:square;stroke-width:2;"/>
   </g>
   <g id="line2d_8">
    <path clip-path="url(#pa0debf68b6)" d="M 204.165 142.381154 
L 216.639 142.131674 
L 229.113 141.882194 
L 241.587 141.632714 
L 254.061 141.383234 
L 266.535 141.133754 
" style="fill:none;stroke:#ffd700;stroke-linecap:square;stroke-width:2;"/>
   </g>
   <g id="line2d_9">
    <path clip-path="url(#pa0debf68b6)" d="M 204.165 142.381154 
L 216.639 142.131674 
L 229.110878 141.795109 
L 241.572729 141.197133 
L 254.005616 140.163202 
L 266.372085 138.519271 
" style="fill:none;stroke:#ffd700;stroke-linecap:square;stroke-width:2;"/>
   </g>
   <g id="line2d_10">
    <path clip-path="url(#pa0debf68b6)" d="M 204.165 142.381154 
L 216.639 142.131674 
L 229.114362 141.969294 
L 241.590157 142.068517 
L 254.054442 142.604505 
L 266.476752 143.75266 
" style="fill:none;stroke:#ffd700;stroke-linecap:square;stroke-width:2;"/>
   </g>
   <g id="line2d_11">
    <path clip-path="url(#pa0debf68b6)" d="M 266.535 141.133754 
L 279.009 140.884274 
L 291.483 140.634794 
L 303.957 140.385314 
L 316.431 140.135834 
L 328.905 139.886354 
" style="fill:none;stroke:#ffd700;stroke-linecap:square;stroke-width:2;"/>
   </g>
   <g id="line2d_12">
    <path clip-path="url(#pa0debf68b6)" d="M 266.535 141.133754 
L 279.009 140.884274 
L 291.480878 140.547709 
L 303.942729 139.949733 
L 316.375616 138.915802 
L 328.742085 137.271871 
" style="fill:none;stroke:#ffd700;stroke-linecap:square;stroke-width:2;"/>
   </g>
   <g id="line2d_13">
    <path clip-path="url(#pa0debf68b6)" d="M 266.535 141.133754 
L 279.009 140.884274 
L 291.484362 140.721894 
L 303.960157 140.821117 
L 316.424442 141.357105 
L 328.846752 142.50526 
" style="fill:none;stroke:#ffd700;stroke-linecap:square;stroke-width:2;"/>
   </g>
   <g id="line2d_14">
    <path clip-path="url(#pa0debf68b6)" d="M 328.742085 137.271871 
L 340.976113 134.846887 
L 353.032236 131.650055 
L 364.91711 127.864128 
L 376.662493 123.664243 
L 388.31745 119.218935 
" style="fill:none;stroke:#ffd700;stroke-linecap:square;stroke-width:2;"/>
   </g>
   <g id="line2d_15">
    <path clip-path="url(#pa0debf68b6)" d="M 328.742085 137.271871 
L 340.976113 134.846887 
L 353.008136 131.563222 
L 364.777962 127.437304 
L 376.226714 122.489771 
L 387.297122 116.745374 
" style="fill:none;stroke:#ffd700;stroke-linecap:square;stroke-width:2;"/>
   </g>
   <g id="line2d_16">
    <path clip-path="url(#pa0debf68b6)" d="M 388.31745 119.218935 
L 399.941156 114.692333 
L 411.564863 110.165732 
L 423.188569 105.63913 
L 434.812276 101.112529 
L 446.435982 96.585927 
" style="fill:none;stroke:#ffd700;stroke-linecap:square;stroke-width:2;"/>
   </g>
   <g id="line2d_17">
    <path clip-path="url(#pa0debf68b6)" d="M 388.31745 119.218935 
L 399.941156 114.692333 
L 411.532904 110.084714 
L 423.025285 105.235154 
L 434.340462 99.986322 
L 445.383385 94.187729 
" style="fill:none;stroke:#ffd700;stroke-linecap:square;stroke-width:2;"/>
   </g>
   <g id="line2d_18">
    <path clip-path="url(#pa0debf68b6)" d="M 388.31745 119.218935 
L 399.941156 114.692333 
L 411.596113 110.247025 
L 423.341496 106.04714 
L 435.226369 102.261213 
L 447.282492 99.064382 
" style="fill:none;stroke:#ffd700;stroke-linecap:square;stroke-width:2;"/>
   </g>
   <g id="line2d_19">
    <path clip-path="url(#pa0debf68b6)" d="M 447.282492 99.064382 
L 459.516521 96.639397 
L 471.880513 94.995763 
L 484.310911 93.962005 
L 496.770269 93.364115 
L 509.239653 93.027584 
" style="fill:none;stroke:#ffd700;stroke-linecap:square;stroke-width:2;"/>
   </g>
   <g id="line2d_20">
    <path clip-path="url(#pa0debf68b6)" d="M 447.282492 99.064382 
L 459.516521 96.639397 
L 471.891357 95.085223 
L 484.345095 94.409635 
L 496.815436 94.616012 
L 509.24 95.703322 
" style="fill:none;stroke:#ffd700;stroke-linecap:square;stroke-width:2;"/>
   </g>
   <g id="line2d_21">
    <path clip-path="url(#pa0debf68b6)" d="M 509.239653 93.027584 
L 521.713653 92.778104 
L 534.187653 92.528624 
L 546.661653 92.279144 
L 559.135653 92.029664 
L 571.609653 91.780184 
" style="fill:none;stroke:#ffd700;stroke-linecap:square;stroke-width:2;"/>
   </g>
   <g id="line2d_22">
    <path clip-path="url(#pa0debf68b6)" d="M 509.239653 93.027584 
L 521.713653 92.778104 
L 534.185531 92.441539 
L 546.647381 91.843563 
L 559.080268 90.809632 
L 571.446737 89.165702 
" style="fill:none;stroke:#ffd700;stroke-linecap:square;stroke-width:2;"/>
   </g>
   <g id="line2d_23">
    <path clip-path="url(#pa0debf68b6)" d="M 509.239653 93.027584 
L 521.713653 92.778104 
L 534.189014 92.615724 
L 546.664809 92.714948 
L 559.129094 93.250935 
L 571.551405 94.39909 
" style="fill:none;stroke:#ffd700;stroke-linecap:square;stroke-width:2;"/>
   </g>
   <g id="line2d_24">
    <path clip-path="url(#pa0debf68b6)" d="M 571.551405 94.39909 
L 583.872621 96.332904 
L 596.04694 99.045062 
L 608.073703 102.352693 
L 619.977642 106.079528 
L 631.801041 110.055207 
" style="fill:none;stroke:#ffd700;stroke-linecap:square;stroke-width:2;"/>
   </g>
   <g id="line2d_25">
    <path clip-path="url(#pa0debf68b6)" d="M 571.551405 94.39909 
L 583.872621 96.332904 
L 596.026331 99.13279 
L 607.951735 102.78474 
L 619.589178 107.270487 
L 630.880445 112.567591 
" style="fill:none;stroke:#ffd700;stroke-linecap:square;stroke-width:2;"/>
   </g>
   <g id="line2d_26">
    <path clip-path="url(#pa0debf68b6)" d="M 631.801041 110.055207 
L 643.596465 114.113363 
L 655.39189 118.17152 
L 667.187315 122.229676 
L 678.982739 126.287833 
L 690.778164 130.345989 
" style="fill:none;stroke:#ffd700;stroke-linecap:square;stroke-width:2;"/>
   </g>
   <g id="line2d_27">
    <path clip-path="url(#pa0debf68b6)" d="M 631.801041 110.055207 
L 643.596465 114.113363 
L 655.419864 118.089041 
L 667.323803 121.815877 
L 679.350566 125.123508 
L 691.524885 127.835666 
" style="fill:none;stroke:#ffd700;stroke-linecap:square;stroke-width:2;"/>
   </g>
   <g id="line2d_28">
    <path clip-path="url(#pa0debf68b6)" d="M 631.801041 110.055207 
L 643.596465 114.113363 
L 655.363197 118.253751 
L 667.040316 122.639859 
L 678.556339 127.432006 
L 689.822311 132.784362 
" style="fill:none;stroke:#ffd700;stroke-linecap:square;stroke-width:2;"/>
   </g>
   <g id="line2d_29">
    <path clip-path="url(#pa0debf68b6)" d="M 691.524885 127.835666 
L 703.846101 129.76948 
L 716.265931 130.917372 
L 728.727726 131.453219 
L 741.201027 131.55239 
L 753.673894 131.390009 
" style="fill:none;stroke:#ffd700;stroke-linecap:square;stroke-width:2;"/>
   </g>
   <g id="line2d_30">
    <path clip-path="url(#pa0debf68b6)" d="M 691.524885 127.835666 
L 703.846101 129.76948 
L 716.273189 130.827549 
L 728.743982 131.00458 
L 741.196095 130.299688 
L 753.567239 128.716398 
" style="fill:none;stroke:#ffd700;stroke-linecap:square;stroke-width:2;"/>
   </g>
   <g id="line2d_31">
    <path clip-path="url(#pa0debf68b6)" d="M 753.673894 131.390009 
L 766.147894 131.140529 
L 778.621894 130.891049 
L 791.095894 130.641569 
L 803.569894 130.392089 
L 816.043894 130.142609 
" style="fill:none;stroke:#ffd700;stroke-linecap:square;stroke-width:2;"/>
   </g>
   <g id="line2d_32">
    <path clip-path="url(#pa0debf68b6)" d="M 753.673894 131.390009 
L 766.147894 131.140529 
L 778.621894 130.891049 
L 791.095894 130.641569 
L 803.569894 130.392089 
L 816.043894 130.142609 
" style="fill:none;stroke:#008000;stroke-linecap:square;stroke-width:3;"/>
   </g>
   <g id="line2d_33">
    <path clip-path="url(#pa0debf68b6)" d="M 79.425 144.875954 
" style="fill:none;stroke:#008000;stroke-linecap:square;stroke-width:3;"/>
   </g>
   <g id="line2d_34">
    <path clip-path="url(#pa0debf68b6)" d="M 79.425 144.875954 
L 91.899 144.626474 
L 104.373 144.376994 
L 116.847 144.127514 
L 129.321 143.878034 
L 141.795 143.628554 
" style="fill:none;stroke:#008000;stroke-linecap:square;stroke-width:3;"/>
   </g>
   <g id="line2d_35">
    <path clip-path="url(#pa0debf68b6)" d="M 141.795 143.628554 
L 154.269 143.379074 
L 166.743 143.129594 
L 179.217 142.880114 
L 191.691 142.630634 
L 204.165 142.381154 
" style="fill:none;stroke:#008000;stroke-linecap:square;stroke-width:3;"/>
   </g>
   <g id="line2d_36">
    <path clip-path="url(#pa0debf68b6)" d="M 204.165 142.381154 
L 216.639 142.131674 
L 229.113 141.882194 
L 241.587 141.632714 
L 254.061 141.383234 
L 266.535 141.133754 
" style="fill:none;stroke:#008000;stroke-linecap:square;stroke-width:3;"/>
   </g>
   <g id="line2d_37">
    <path clip-path="url(#pa0debf68b6)" d="M 266.535 141.133754 
L 279.009 140.884274 
L 291.480878 140.547709 
L 303.942729 139.949733 
L 316.375616 138.915802 
L 328.742085 137.271871 
" style="fill:none;stroke:#008000;stroke-linecap:square;stroke-width:3;"/>
   </g>
   <g id="line2d_38">
    <path clip-path="url(#pa0debf68b6)" d="M 328.742085 137.271871 
L 340.976113 134.846887 
L 353.032236 131.650055 
L 364.91711 127.864128 
L 376.662493 123.664243 
L 388.31745 119.218935 
" style="fill:none;stroke:#008000;stroke-linecap:square;stroke-width:3;"/>
   </g>
   <g id="line2d_39">
    <path clip-path="url(#pa0debf68b6)" d="M 388.31745 119.218935 
L 399.941156 114.692333 
L 411.596113 110.247025 
L 423.341496 106.04714 
L 435.226369 102.261213 
L 447.282492 99.064382 
" style="fill:none;stroke:#008000;stroke-linecap:square;stroke-width:3;"/>
   </g>
   <g id="line2d_40">
    <path clip-path="url(#pa0debf68b6)" d="M 447.282492 99.064382 
L 459.516521 96.639397 
L 471.880513 94.995763 
L 484.310911 93.962005 
L 496.770269 93.364115 
L 509.239653 93.027584 
" style="fill:none;stroke:#008000;stroke-linecap:square;stroke-width:3;"/>
   </g>
   <g id="line2d_41">
    <path clip-path="url(#pa0debf68b6)" d="M 509.239653 93.027584 
L 521.713653 92.778104 
L 534.189014 92.615724 
L 546.664809 92.714948 
L 559.129094 93.250935 
L 571.551405 94.39909 
" style="fill:none;stroke:#008000;stroke-linecap:square;stroke-width:3;"/>
   </g>
   <g id="line2d_42">
    <path clip-path="url(#pa0debf68b6)" d="M 571.551405 94.39909 
L 583.872621 96.332904 
L 596.04694 99.045062 
L 608.073703 102.352693 
L 619.977642 106.079528 
L 631.801041 110.055207 
" style="fill:none;stroke:#008000;stroke-linecap:square;stroke-width:3;"/>
   </g>
   <g id="line2d_43">
    <path clip-path="url(#pa0debf68b6)" d="M 631.801041 110.055207 
L 643.596465 114.113363 
L 655.419864 118.089041 
L 667.323803 121.815877 
L 679.350566 125.123508 
L 691.524885 127.835666 
" style="fill:none;stroke:#008000;stroke-linecap:square;stroke-width:3;"/>
   </g>
   <g id="line2d_44">
    <path clip-path="url(#pa0debf68b6)" d="M 691.524885 127.835666 
L 703.846101 129.76948 
L 716.265931 130.917372 
L 728.727726 131.453219 
L 741.201027 131.55239 
L 753.673894 131.390009 
" style="fill:none;stroke:#008000;stroke-linecap:square;stroke-width:3;"/>
   </g>
   <g id="line2d_45">
    <path clip-path="url(#pa0debf68b6)" d="M 753.673894 131.390009 
L 766.147894 131.140529 
L 778.621894 130.891049 
L 791.095894 130.641569 
L 803.569894 130.392089 
L 816.043894 130.142609 
" style="fill:none;stroke:#008000;stroke-linecap:square;stroke-width:3;"/>
   </g>
   <g id="line2d_46">
    <path clip-path="url(#pa0debf68b6)" d="M 79.425 144.875954 
" style="fill:none;stroke:#ffd700;stroke-linecap:square;stroke-width:1.5;"/>
    <defs>
     <path d="M 0 4 
C 1.060812 4 2.078319 3.578535 2.828427 2.828427 
C 3.578535 2.078319 4 1.060812 4 0 
C 4 -1.060812 3.578535 -2.078319 2.828427 -2.828427 
C 2.078319 -3.578535 1.060812 -4 0 -4 
C -1.060812 -4 -2.078319 -3.578535 -2.828427 -2.828427 
C -3.578535 -2.078319 -4 -1.060812 -4 0 
C -4 1.060812 -3.578535 2.078319 -2.828427 2.828427 
C -2.078319 3.578535 -1.060812 4 0 4 
z
" id="me705028ff9" style="stroke:#ffd700;"/>
    </defs>
    <g clip-path="url(#pa0debf68b6)">
     <use style="fill:#ffd700;stroke:#ffd700;" x="79.425" xlink:href="#me705028ff9" y="144.875954"/>
    </g>
   </g>
   <g id="line2d_47">
    <path clip-path="url(#pa0debf68b6)" d="M 141.795 143.628554 
" style="fill:none;stroke:#ffd700;stroke-linecap:square;stroke-width:1.5;"/>
    <g clip-path="url(#pa0debf68b6)">
     <use style="fill:#ffd700;stroke:#ffd700;" x="141.795" xlink:href="#me705028ff9" y="143.628554"/>
    </g>
   </g>
   <g id="line2d_48">
    <path clip-path="url(#pa0debf68b6)" d="M 141.632085 141.014071 
" style="fill:none;stroke:#ffd700;stroke-linecap:square;stroke-width:1.5;"/>
    <g clip-path="url(#pa0debf68b6)">
     <use style="fill:#ffd700;stroke:#ffd700;" x="141.632085" xlink:href="#me705028ff9" y="141.014071"/>
    </g>
   </g>
   <g id="line2d_49">
    <path clip-path="url(#pa0debf68b6)" d="M 141.736752 146.24746 
" style="fill:none;stroke:#ffd700;stroke-linecap:square;stroke-width:1.5;"/>
    <g clip-path="url(#pa0debf68b6)">
     <use style="fill:#ffd700;stroke:#ffd700;" x="141.736752" xlink:href="#me705028ff9" y="146.24746"/>
    </g>
   </g>
   <g id="line2d_50">
    <path clip-path="url(#pa0debf68b6)" d="M 204.165 142.381154 
" style="fill:none;stroke:#ffd700;stroke-linecap:square;stroke-width:1.5;"/>
    <g clip-path="url(#pa0debf68b6)">
     <use style="fill:#ffd700;stroke:#ffd700;" x="204.165" xlink:href="#me705028ff9" y="142.381154"/>
    </g>
   </g>
   <g id="line2d_51">
    <path clip-path="url(#pa0debf68b6)" d="M 204.002085 139.766671 
" style="fill:none;stroke:#ffd700;stroke-linecap:square;stroke-width:1.5;"/>
    <g clip-path="url(#pa0debf68b6)">
     <use style="fill:#ffd700;stroke:#ffd700;" x="204.002085" xlink:href="#me705028ff9" y="139.766671"/>
    </g>
   </g>
   <g id="line2d_52">
    <path clip-path="url(#pa0debf68b6)" d="M 204.106752 145.00006 
" style="fill:none;stroke:#ffd700;stroke-linecap:square;stroke-width:1.5;"/>
    <g clip-path="url(#pa0debf68b6)">
     <use style="fill:#ffd700;stroke:#ffd700;" x="204.106752" xlink:href="#me705028ff9" y="145.00006"/>
    </g>
   </g>
   <g id="line2d_53">
    <path clip-path="url(#pa0debf68b6)" d="M 266.535 141.133754 
" style="fill:none;stroke:#ffd700;stroke-linecap:square;stroke-width:1.5;"/>
    <g clip-path="url(#pa0debf68b6)">
     <use style="fill:#ffd700;stroke:#ffd700;" x="266.535" xlink:href="#me705028ff9" y="141.133754"/>
    </g>
   </g>
   <g id="line2d_54">
    <path clip-path="url(#pa0debf68b6)" d="M 266.372085 138.519271 
" style="fill:none;stroke:#ffd700;stroke-linecap:square;stroke-width:1.5;"/>
    <g clip-path="url(#pa0debf68b6)">
     <use style="fill:#ffd700;stroke:#ffd700;" x="266.372085" xlink:href="#me705028ff9" y="138.519271"/>
    </g>
   </g>
   <g id="line2d_55">
    <path clip-path="url(#pa0debf68b6)" d="M 266.476752 143.75266 
" style="fill:none;stroke:#ffd700;stroke-linecap:square;stroke-width:1.5;"/>
    <g clip-path="url(#pa0debf68b6)">
     <use style="fill:#ffd700;stroke:#ffd700;" x="266.476752" xlink:href="#me705028ff9" y="143.75266"/>
    </g>
   </g>
   <g id="line2d_56">
    <path clip-path="url(#pa0debf68b6)" d="M 328.905 139.886354 
" style="fill:none;stroke:#ffd700;stroke-linecap:square;stroke-width:1.5;"/>
    <g clip-path="url(#pa0debf68b6)">
     <use style="fill:#ffd700;stroke:#ffd700;" x="328.905" xlink:href="#me705028ff9" y="139.886354"/>
    </g>
   </g>
   <g id="line2d_57">
    <path clip-path="url(#pa0debf68b6)" d="M 328.742085 137.271871 
" style="fill:none;stroke:#ffd700;stroke-linecap:square;stroke-width:1.5;"/>
    <g clip-path="url(#pa0debf68b6)">
     <use style="fill:#ffd700;stroke:#ffd700;" x="328.742085" xlink:href="#me705028ff9" y="137.271871"/>
    </g>
   </g>
   <g id="line2d_58">
    <path clip-path="url(#pa0debf68b6)" d="M 328.846752 142.50526 
" style="fill:none;stroke:#ffd700;stroke-linecap:square;stroke-width:1.5;"/>
    <g clip-path="url(#pa0debf68b6)">
     <use style="fill:#ffd700;stroke:#ffd700;" x="328.846752" xlink:href="#me705028ff9" y="142.50526"/>
    </g>
   </g>
   <g id="line2d_59">
    <path clip-path="url(#pa0debf68b6)" d="M 388.31745 119.218935 
" style="fill:none;stroke:#ffd700;stroke-linecap:square;stroke-width:1.5;"/>
    <g clip-path="url(#pa0debf68b6)">
     <use style="fill:#ffd700;stroke:#ffd700;" x="388.31745" xlink:href="#me705028ff9" y="119.218935"/>
    </g>
   </g>
   <g id="line2d_60">
    <path clip-path="url(#pa0debf68b6)" d="M 387.297122 116.745374 
" style="fill:none;stroke:#ffd700;stroke-linecap:square;stroke-width:1.5;"/>
    <g clip-path="url(#pa0debf68b6)">
     <use style="fill:#ffd700;stroke:#ffd700;" x="387.297122" xlink:href="#me705028ff9" y="116.745374"/>
    </g>
   </g>
   <g id="line2d_61">
    <path clip-path="url(#pa0debf68b6)" d="M 446.435982 96.585927 
" style="fill:none;stroke:#ffd700;stroke-linecap:square;stroke-width:1.5;"/>
    <g clip-path="url(#pa0debf68b6)">
     <use style="fill:#ffd700;stroke:#ffd700;" x="446.435982" xlink:href="#me705028ff9" y="96.585927"/>
    </g>
   </g>
   <g id="line2d_62">
    <path clip-path="url(#pa0debf68b6)" d="M 445.383385 94.187729 
" style="fill:none;stroke:#ffd700;stroke-linecap:square;stroke-width:1.5;"/>
    <g clip-path="url(#pa0debf68b6)">
     <use style="fill:#ffd700;stroke:#ffd700;" x="445.383385" xlink:href="#me705028ff9" y="94.187729"/>
    </g>
   </g>
   <g id="line2d_63">
    <path clip-path="url(#pa0debf68b6)" d="M 447.282492 99.064382 
" style="fill:none;stroke:#ffd700;stroke-linecap:square;stroke-width:1.5;"/>
    <g clip-path="url(#pa0debf68b6)">
     <use style="fill:#ffd700;stroke:#ffd700;" x="447.282492" xlink:href="#me705028ff9" y="99.064382"/>
    </g>
   </g>
   <g id="line2d_64">
    <path clip-path="url(#pa0debf68b6)" d="M 509.239653 93.027584 
" style="fill:none;stroke:#ffd700;stroke-linecap:square;stroke-width:1.5;"/>
    <g clip-path="url(#pa0debf68b6)">
     <use style="fill:#ffd700;stroke:#ffd700;" x="509.239653" xlink:href="#me705028ff9" y="93.027584"/>
    </g>
   </g>
   <g id="line2d_65">
    <path clip-path="url(#pa0debf68b6)" d="M 509.24 95.703322 
" style="fill:none;stroke:#ffd700;stroke-linecap:square;stroke-width:1.5;"/>
    <g clip-path="url(#pa0debf68b6)">
     <use style="fill:#ffd700;stroke:#ffd700;" x="509.24" xlink:href="#me705028ff9" y="95.703322"/>
    </g>
   </g>
   <g id="line2d_66">
    <path clip-path="url(#pa0debf68b6)" d="M 571.609653 91.780184 
" style="fill:none;stroke:#ffd700;stroke-linecap:square;stroke-width:1.5;"/>
    <g clip-path="url(#pa0debf68b6)">
     <use style="fill:#ffd700;stroke:#ffd700;" x="571.609653" xlink:href="#me705028ff9" y="91.780184"/>
    </g>
   </g>
   <g id="line2d_67">
    <path clip-path="url(#pa0debf68b6)" d="M 571.446737 89.165702 
" style="fill:none;stroke:#ffd700;stroke-linecap:square;stroke-width:1.5;"/>
    <g clip-path="url(#pa0debf68b6)">
     <use style="fill:#ffd700;stroke:#ffd700;" x="571.446737" xlink:href="#me705028ff9" y="89.165702"/>
    </g>
   </g>
   <g id="line2d_68">
    <path clip-path="url(#pa0debf68b6)" d="M 571.551405 94.39909 
" style="fill:none;stroke:#ffd700;stroke-linecap:square;stroke-width:1.5;"/>
    <g clip-path="url(#pa0debf68b6)">
     <use style="fill:#ffd700;stroke:#ffd700;" x="571.551405" xlink:href="#me705028ff9" y="94.39909"/>
    </g>
   </g>
   <g id="line2d_69">
    <path clip-path="url(#pa0debf68b6)" d="M 631.801041 110.055207 
" style="fill:none;stroke:#ffd700;stroke-linecap:square;stroke-width:1.5;"/>
    <g clip-path="url(#pa0debf68b6)">
     <use style="fill:#ffd700;stroke:#ffd700;" x="631.801041" xlink:href="#me705028ff9" y="110.055207"/>
    </g>
   </g>
   <g id="line2d_70">
    <path clip-path="url(#pa0debf68b6)" d="M 630.880445 112.567591 
" style="fill:none;stroke:#ffd700;stroke-linecap:square;stroke-width:1.5;"/>
    <g clip-path="url(#pa0debf68b6)">
     <use style="fill:#ffd700;stroke:#ffd700;" x="630.880445" xlink:href="#me705028ff9" y="112.567591"/>
    </g>
   </g>
   <g id="line2d_71">
    <path clip-path="url(#pa0debf68b6)" d="M 690.778164 130.345989 
" style="fill:none;stroke:#ffd700;stroke-linecap:square;stroke-width:1.5;"/>
    <g clip-path="url(#pa0debf68b6)">
     <use style="fill:#ffd700;stroke:#ffd700;" x="690.778164" xlink:href="#me705028ff9" y="130.345989"/>
    </g>
   </g>
   <g id="line2d_72">
    <path clip-path="url(#pa0debf68b6)" d="M 691.524885 127.835666 
" style="fill:none;stroke:#ffd700;stroke-linecap:square;stroke-width:1.5;"/>
    <g clip-path="url(#pa0debf68b6)">
     <use style="fill:#ffd700;stroke:#ffd700;" x="691.524885" xlink:href="#me705028ff9" y="127.835666"/>
    </g>
   </g>
   <g id="line2d_73">
    <path clip-path="url(#pa0debf68b6)" d="M 689.822311 132.784362 
" style="fill:none;stroke:#ffd700;stroke-linecap:square;stroke-width:1.5;"/>
    <g clip-path="url(#pa0debf68b6)">
     <use style="fill:#ffd700;stroke:#ffd700;" x="689.822311" xlink:href="#me705028ff9" y="132.784362"/>
    </g>
   </g>
   <g id="line2d_74">
    <path clip-path="url(#pa0debf68b6)" d="M 753.673894 131.390009 
" style="fill:none;stroke:#ffd700;stroke-linecap:square;stroke-width:1.5;"/>
    <g clip-path="url(#pa0debf68b6)">
     <use style="fill:#ffd700;stroke:#ffd700;" x="753.673894" xlink:href="#me705028ff9" y="131.390009"/>
    </g>
   </g>
   <g id="line2d_75">
    <path clip-path="url(#pa0debf68b6)" d="M 753.567239 128.716398 
" style="fill:none;stroke:#ffd700;stroke-linecap:square;stroke-width:1.5;"/>
    <g clip-path="url(#pa0debf68b6)">
     <use style="fill:#ffd700;stroke:#ffd700;" x="753.567239" xlink:href="#me705028ff9" y="128.716398"/>
    </g>
   </g>
   <g id="line2d_76">
    <path clip-path="url(#pa0debf68b6)" d="M 816.043894 130.142609 
" style="fill:none;stroke:#ffd700;stroke-linecap:square;stroke-width:1.5;"/>
    <g clip-path="url(#pa0debf68b6)">
     <use style="fill:#ffd700;stroke:#ffd700;" x="816.043894" xlink:href="#me705028ff9" y="130.142609"/>
    </g>
   </g>
   <g id="line2d_77">
    <path clip-path="url(#pa0debf68b6)" d="M 816.043894 130.142609 
" style="fill:none;stroke:#008000;stroke-linecap:square;stroke-width:1.5;"/>
    <defs>
     <path d="M 0 4 
C 1.060812 4 2.078319 3.578535 2.828427 2.828427 
C 3.578535 2.078319 4 1.060812 4 0 
C 4 -1.060812 3.578535 -2.078319 2.828427 -2.828427 
C 2.078319 -3.578535 1.060812 -4 0 -4 
C -1.060812 -4 -2.078319 -3.578535 -2.828427 -2.828427 
C -3.578535 -2.078319 -4 -1.060812 -4 0 
C -4 1.060812 -3.578535 2.078319 -2.828427 2.828427 
C -2.078319 3.578535 -1.060812 4 0 4 
z
" id="m02ce228e30" style="stroke:#008000;"/>
    </defs>
    <g clip-path="url(#pa0debf68b6)">
     <use style="fill:#008000;stroke:#008000;" x="816.043894" xlink:href="#m02ce228e30" y="130.142609"/>
    </g>
   </g>
   <g id="line2d_78">
    <path clip-path="url(#pa0debf68b6)" d="M 79.425 144.875954 
" style="fill:none;stroke:#008000;stroke-linecap:square;stroke-width:1.5;"/>
    <g clip-path="url(#pa0debf68b6)">
     <use style="fill:#008000;stroke:#008000;" x="79.425" xlink:href="#m02ce228e30" y="144.875954"/>
    </g>
   </g>
   <g id="line2d_79">
    <path clip-path="url(#pa0debf68b6)" d="M 141.795 143.628554 
" style="fill:none;stroke:#008000;stroke-linecap:square;stroke-width:1.5;"/>
    <g clip-path="url(#pa0debf68b6)">
     <use style="fill:#008000;stroke:#008000;" x="141.795" xlink:href="#m02ce228e30" y="143.628554"/>
    </g>
   </g>
   <g id="line2d_80">
    <path clip-path="url(#pa0debf68b6)" d="M 204.165 142.381154 
" style="fill:none;stroke:#008000;stroke-linecap:square;stroke-width:1.5;"/>
    <g clip-path="url(#pa0debf68b6)">
     <use style="fill:#008000;stroke:#008000;" x="204.165" xlink:href="#m02ce228e30" y="142.381154"/>
    </g>
   </g>
   <g id="line2d_81">
    <path clip-path="url(#pa0debf68b6)" d="M 266.535 141.133754 
" style="fill:none;stroke:#008000;stroke-linecap:square;stroke-width:1.5;"/>
    <g clip-path="url(#pa0debf68b6)">
     <use style="fill:#008000;stroke:#008000;" x="266.535" xlink:href="#m02ce228e30" y="141.133754"/>
    </g>
   </g>
   <g id="line2d_82">
    <path clip-path="url(#pa0debf68b6)" d="M 328.742085 137.271871 
" style="fill:none;stroke:#008000;stroke-linecap:square;stroke-width:1.5;"/>
    <g clip-path="url(#pa0debf68b6)">
     <use style="fill:#008000;stroke:#008000;" x="328.742085" xlink:href="#m02ce228e30" y="137.271871"/>
    </g>
   </g>
   <g id="line2d_83">
    <path clip-path="url(#pa0debf68b6)" d="M 388.31745 119.218935 
" style="fill:none;stroke:#008000;stroke-linecap:square;stroke-width:1.5;"/>
    <g clip-path="url(#pa0debf68b6)">
     <use style="fill:#008000;stroke:#008000;" x="388.31745" xlink:href="#m02ce228e30" y="119.218935"/>
    </g>
   </g>
   <g id="line2d_84">
    <path clip-path="url(#pa0debf68b6)" d="M 447.282492 99.064382 
" style="fill:none;stroke:#008000;stroke-linecap:square;stroke-width:1.5;"/>
    <g clip-path="url(#pa0debf68b6)">
     <use style="fill:#008000;stroke:#008000;" x="447.282492" xlink:href="#m02ce228e30" y="99.064382"/>
    </g>
   </g>
   <g id="line2d_85">
    <path clip-path="url(#pa0debf68b6)" d="M 509.239653 93.027584 
" style="fill:none;stroke:#008000;stroke-linecap:square;stroke-width:1.5;"/>
    <g clip-path="url(#pa0debf68b6)">
     <use style="fill:#008000;stroke:#008000;" x="509.239653" xlink:href="#m02ce228e30" y="93.027584"/>
    </g>
   </g>
   <g id="line2d_86">
    <path clip-path="url(#pa0debf68b6)" d="M 571.551405 94.39909 
" style="fill:none;stroke:#008000;stroke-linecap:square;stroke-width:1.5;"/>
    <g clip-path="url(#pa0debf68b6)">
     <use style="fill:#008000;stroke:#008000;" x="571.551405" xlink:href="#m02ce228e30" y="94.39909"/>
    </g>
   </g>
   <g id="line2d_87">
    <path clip-path="url(#pa0debf68b6)" d="M 631.801041 110.055207 
" style="fill:none;stroke:#008000;stroke-linecap:square;stroke-width:1.5;"/>
    <g clip-path="url(#pa0debf68b6)">
     <use style="fill:#008000;stroke:#008000;" x="631.801041" xlink:href="#m02ce228e30" y="110.055207"/>
    </g>
   </g>
   <g id="line2d_88">
    <path clip-path="url(#pa0debf68b6)" d="M 691.524885 127.835666 
" style="fill:none;stroke:#008000;stroke-linecap:square;stroke-width:1.5;"/>
    <g clip-path="url(#pa0debf68b6)">
     <use style="fill:#008000;stroke:#008000;" x="691.524885" xlink:href="#m02ce228e30" y="127.835666"/>
    </g>
   </g>
   <g id="line2d_89">
    <path clip-path="url(#pa0debf68b6)" d="M 753.673894 131.390009 
" style="fill:none;stroke:#008000;stroke-linecap:square;stroke-width:1.5;"/>
    <g clip-path="url(#pa0debf68b6)">
     <use style="fill:#008000;stroke:#008000;" x="753.673894" xlink:href="#m02ce228e30" y="131.390009"/>
    </g>
   </g>
   <g id="line2d_90">
    <path clip-path="url(#pa0debf68b6)" d="M 816.043894 130.142609 
" style="fill:none;stroke:#008000;stroke-linecap:square;stroke-width:1.5;"/>
    <g clip-path="url(#pa0debf68b6)">
     <use style="fill:#008000;stroke:#008000;" x="816.043894" xlink:href="#m02ce228e30" y="130.142609"/>
    </g>
   </g>
  </g>
 </g>
 <defs>
  <clipPath id="pa0debf68b6">
   <rect height="277.2" width="906.75" x="7.2" y="7.2"/>
  </clipPath>
 </defs>
</svg>
